<svg id="sblogo" xmlns="http://www.w3.org/2000/svg" xmlns:xlink="http://www.w3.org/1999/xlink" width="284" height="271.6" viewBox="0 0 284 271.6">
  <defs>
    <linearGradient id="Unbenannter_Verlauf_454" data-name="Unbenannter Verlauf 454" x1="105.66" y1="35.05" x2="0" y2="35.05" gradientUnits="userSpaceOnUse">
      <stop offset="0" stop-color="#9769a4"/>
      <stop offset="0.5" stop-color="#52666b"/>
      <stop offset="1" stop-color="#9a988e"/>
    </linearGradient>
    <linearGradient id="Unbenannter_Verlauf_447" data-name="Unbenannter Verlauf 447" x1="263.26" y1="696.4" x2="221.86" y2="768.1" gradientTransform="matrix(1, 0, 0, -1, 0, 572.09)" xlink:href="#Unbenannter_Verlauf_454"/>
  </defs>
  <g id="sblogo-2" data-name="sblogo">
    <path id="b" d="M19.5,56.8v-.9c0-3.7-1.1-5.8-3.7-6.6h0c2.2-.7,3.1-2.6,3.1-5.7V43c0-4.6-2.3-7.1-6.7-7.1H6.3v28h6.2C17,63.9,19.5,61.4,19.5,56.8Zm-9-17H12q2.7,0,2.7,3.3v1c0,2.3-.9,3.4-2.9,3.4H10.5Zm0,20.2V51.4h1.6c2.3,0,3.2,1.1,3.2,3.6v1.5c0,2.4-.9,3.5-3,3.5Z" transform="translate(0 201.5)" fill="#34474a"/>
    <polygon id="l" points="29.9 237.4 25.7 237.4 25.7 265.4 37 265.4 37 261.4 29.9 261.4 29.9 237.4" fill="#34474a"/>
    <polygon id="e" points="42.5 265.4 54.4 265.4 54.4 261.5 46.7 261.5 46.7 253.2 52.9 253.2 52.9 249.3 46.7 249.3 46.7 241.4 54.4 241.4 54.4 237.4 42.5 237.4 42.5 265.4" fill="#34474a"/>
    <polygon id="h" points="70.1 249.2 65 249.2 65 237.4 60.8 237.4 60.8 265.4 65 265.4 65 253.2 70.1 253.2 70.1 265.4 74.3 265.4 74.3 237.4 70.1 237.4 70.1 249.2" fill="#34474a"/>
    <polygon id="m" points="81.6 265.4 85.6 265.4 85.6 246 85.7 246 89.2 261.4 91.7 261.4 95.3 246 95.3 246 95.3 265.4 99.6 265.4 99.6 237.4 93.9 237.4 90.6 252.5 90.5 252.5 87.2 237.4 81.6 237.4 81.6 265.4" fill="#34474a"/>
    <path id="s" d="M13,34.1c4.2,0,6.6-2.3,6.6-6.3V26.4c0-3.3-1.4-5.7-5.3-8.9s-3.6-3.8-3.6-5.5v-.3c0-1.6.8-2.5,2.2-2.5s2.1.9,2.1,2.5v1l4.1-.4v-.7c0-4-2.3-6.3-6.3-6.3S6.5,7.6,6.5,11.6v.6c0,3.3,1.3,5.6,5.2,8.9s3.7,3.8,3.7,5.5v.9q0,2.7-2.4,2.7t-2.4-2.7v-2l-4.1.4v1.9C6.5,31.8,8.8,34.1,13,34.1Z" transform="translate(0 201.5)" fill="#34474a"/>
    <path id="a" d="M23.8,33.7l.9-6.4h4.7l.9,6.4h4.3l-4.8-28H24.4l-4.9,28Zm3.2-22h.1l1.7,11.8H25.2Z" transform="translate(0 201.5)" fill="#34474a"/>
    <polygon id="m-2" data-name="m" points="40.5 215.8 40.6 215.8 44.1 231.2 46.6 231.2 50.1 215.8 50.2 215.8 50.2 235.2 54.4 235.2 54.4 207.2 48.7 207.2 45.4 222.3 45.4 222.3 42 207.2 36.5 207.2 36.5 235.2 40.5 235.2 40.5 215.8" fill="#34474a"/>
    <path id="u" d="M64.1,34.1c4.1,0,6.6-2.3,6.6-6.7V5.7H66.5V27.3c0,2-1,2.8-2.4,2.8s-2.4-.8-2.4-2.8V5.7H57.6V27.4C57.6,31.8,60.1,34.1,64.1,34.1Z" transform="translate(0 201.5)" fill="#34474a"/>
    <polygon id="e-2" data-name="e" points="85.8 231.3 78.1 231.3 78.1 223 84.3 223 84.3 219.1 78.1 219.1 78.1 211.1 85.8 211.1 85.8 207.2 73.9 207.2 73.9 235.2 85.8 235.2 85.8 231.3" fill="#34474a"/>
    <rect id="l-2" data-name="l" x="88.2" y="207.2" width="4.2" height="24" fill="#34474a"/>
    <path id="frame" d="M101.7,0H0V70H105.7V0Zm0,8V29.7H88.2v4h13.5V66H4V4h97.7Z" transform="translate(0 201.5)" fill="url(#Unbenannter_Verlauf_454)"/>
  </g>
  <path id="circle_nav" data-name="circle nav" d="M242.7-201.5C264.8-202,284-183,284-160.1s-19.2,41.9-42.1,41.5a41.8,41.8,0,0,1-40.8-41.5C201-182.9,220.5-202.1,242.7-201.5Z" transform="translate(0 201.5)" fill="url(#Unbenannter_Verlauf_447)"/>
</svg>
