<svg id="sblogo" xmlns="http://www.w3.org/2000/svg" width="37.7" height="38.4" viewBox="0 0 37.7 38.4">
  <path id="b" d="M32.5,26.1v-.9c0-3.7-1.1-5.8-3.8-6.6h0c2.3-.7,3.2-2.6,3.2-5.7v-.5c0-4.6-2.4-7.1-6.8-7.1H19.2v28h6.2C30,33.2,32.5,30.7,32.5,26.1Zm-9.1-17H25c1.8,0,2.6,1.1,2.6,3.4v.9c0,2.3-.8,3.4-2.8,3.4H23.4Zm0,20.2V20.7h1.7c2.2,0,3.1,1.1,3.1,3.6v1.6c0,2.3-.9,3.4-2.9,3.4Z" fill="#34474a"/>
  <path id="s" d="M11.8,33.6c4.2,0,6.6-2.3,6.6-6.3V25.9c0-3.3-1.5-5.6-5.4-8.9s-3.5-3.8-3.5-5.5v-.3c0-1.6.7-2.5,2.1-2.5s2.2.9,2.2,2.5v1l4.1-.4v-.7c0-4-2.3-6.3-6.3-6.3S5.2,7.1,5.2,11.1v.6c0,3.3,1.4,5.6,5.2,8.9s3.7,3.8,3.7,5.5v1c0,1.7-.8,2.6-2.4,2.6s-2.4-.9-2.4-2.6v-2l-4.1.4v1.8C5.2,31.3,7.6,33.6,11.8,33.6Z" fill="#34474a"/>
  <path id="frame" d="M1.5,36.9H36.2V13.3A11.8,11.8,0,0,0,24.5,1.5H1.7Z" fill="none" stroke="#32a067" stroke-miterlimit="10" stroke-width="3"/>
</svg>
