<svg id="sblogo" xmlns="http://www.w3.org/2000/svg" width="105.7" height="70.1" viewBox="0 0 105.7 70.1">
  <g id="sblogo-2" data-name="sblogo">
    <path id="b" d="M19.5,56.8v-.9c0-3.7-1.1-5.8-3.7-6.6h0c2.2-.7,3.1-2.6,3.1-5.7V43c0-4.6-2.3-7.1-6.7-7.1H6.3v28h6.2C17,63.9,19.5,61.4,19.5,56.8Zm-9-17H12q2.7,0,2.7,3.3v1c0,2.3-.9,3.4-2.9,3.4H10.5Zm0,20.2V51.4h1.6c2.3,0,3.2,1.1,3.2,3.6v1.5c0,2.4-.9,3.5-3,3.5Z" fill="#34474a"/>
    <polygon id="l" points="29.9 35.9 25.7 35.9 25.7 63.9 37 63.9 37 59.9 29.9 59.9 29.9 35.9" fill="#34474a"/>
    <polygon id="e" points="42.5 63.9 54.4 63.9 54.4 60 46.7 60 46.7 51.7 52.9 51.7 52.9 47.7 46.7 47.7 46.7 39.8 54.4 39.8 54.4 35.9 42.5 35.9 42.5 63.9" fill="#34474a"/>
    <polygon id="h" points="70.1 47.7 65 47.7 65 35.9 60.8 35.9 60.8 63.9 65 63.9 65 51.7 70.1 51.7 70.1 63.9 74.3 63.9 74.3 35.9 70.1 35.9 70.1 47.7" fill="#34474a"/>
    <polygon id="m" points="81.6 63.9 85.6 63.9 85.6 44.5 85.7 44.5 89.2 59.9 91.7 59.9 95.3 44.5 95.3 44.5 95.3 63.9 99.6 63.9 99.6 35.9 93.9 35.9 90.6 50.9 90.5 50.9 87.2 35.9 81.6 35.9 81.6 63.9" fill="#34474a"/>
    <path id="s" d="M13,34.1c4.2,0,6.6-2.3,6.6-6.3V26.4c0-3.3-1.4-5.7-5.3-8.9s-3.6-3.8-3.6-5.5v-.3c0-1.6.8-2.5,2.2-2.5s2.1.9,2.1,2.5v1l4.1-.4v-.7c0-4-2.3-6.3-6.3-6.3S6.5,7.6,6.5,11.6v.6c0,3.3,1.3,5.6,5.2,8.9s3.7,3.8,3.7,5.5v.9q0,2.7-2.4,2.7t-2.4-2.7v-2l-4.1.4v1.9C6.5,31.8,8.8,34.1,13,34.1Z" fill="#34474a"/>
    <path id="a" d="M23.8,33.7l.9-6.4h4.7l.9,6.4h4.3l-4.8-28H24.4l-4.9,28Zm3.2-22h.1l1.7,11.8H25.2Z" fill="#34474a"/>
    <polygon id="m-2" data-name="m" points="40.5 14.3 40.6 14.3 44.1 29.7 46.6 29.7 50.1 14.3 50.2 14.3 50.2 33.7 54.4 33.7 54.4 5.7 48.7 5.7 45.4 20.7 45.4 20.7 42 5.7 36.5 5.7 36.5 33.7 40.5 33.7 40.5 14.3" fill="#34474a"/>
    <path id="u" d="M64.1,34.1c4.1,0,6.6-2.3,6.6-6.7V5.7H66.5V27.3c0,2-1,2.8-2.4,2.8s-2.4-.8-2.4-2.8V5.7H57.6V27.4C57.6,31.8,60.1,34.1,64.1,34.1Z" fill="#34474a"/>
    <polygon id="e-2" data-name="e" points="85.8 29.8 78.1 29.8 78.1 21.5 84.3 21.5 84.3 17.5 78.1 17.5 78.1 9.6 85.8 9.6 85.8 5.7 73.9 5.7 73.9 33.7 85.8 33.7 85.8 29.8" fill="#34474a"/>
    <rect id="l-2" data-name="l" x="88.2" y="5.7" width="4.2" height="24" fill="#34474a"/>
    <path id="frame" d="M101.7,0H0V70H105.7V0Zm0,8V29.7H88.2v4h13.5V66H4V4h97.7Z" fill="#2d9f67"/>
  </g>
</svg>
