<svg xmlns="http://www.w3.org/2000/svg" width="200" height="200" viewBox="0 0 200 200"><path d="M186.9,50.7l-38,42.2V50.7Z" transform="translate(0 0)" fill="#34464a"/><path d="M51.1,149.4h-38l38-42.3Z" transform="translate(0 0)" fill="#34464a"/><path d="M93,51.2H50.7V13.1Z" transform="translate(0 0)" fill="#34464a"/><path d="M149.4,148.9v38l-42.3-38Z" transform="translate(0 0)" fill="#34464a"/><path d="M32.8,82.4c-6.3-11-12.6-21.9-19.1-33L69.5,61.2Z" transform="translate(0 0)" fill="#34464a"/><path d="M167.2,117.6c6.3,11,12.6,21.9,19.1,33l-55.8-11.8Z" transform="translate(0 0)" fill="#34464a"/><path d="M0,99.3,54.2,81.7,33,118.4Z" transform="translate(0 0)" fill="#34464a"/><path d="M145.8,118.3,167,81.6l33,19.1Z" transform="translate(0 0)" fill="#34464a"/><path d="M82.4,167.2l-33,19.1c3.9-18.7,7.9-37.1,11.8-55.8C68.4,142.8,75.4,155,82.4,167.2Z" transform="translate(0 0)" fill="#34464a"/><path d="M81.7,145.8,118.4,167,99.3,200Z" transform="translate(0 0)" fill="#34464a"/><path d="M100.7,0l17.6,54.2L81.6,33Z" transform="translate(0 0)" fill="#34464a"/><path d="M117.6,32.8l33-19.1c-3.9,18.7-7.8,37.1-11.8,55.8Z" transform="translate(0 0)" fill="#34464a"/></svg>