<svg xmlns="http://www.w3.org/2000/svg" xmlns:xlink="http://www.w3.org/1999/xlink" width="224.2" height="207.3" viewBox="0 0 224.2 207.3"><defs><radialGradient id="a" cx="149.92" cy="146.48" r="70" gradientTransform="translate(-55.8 -35.1) scale(1.12 1.12)" gradientUnits="userSpaceOnUse"><stop offset="0" stop-color="#9a988e"/><stop offset="1" stop-color="#51656a"/></radialGradient><linearGradient id="b" x1="37.94" y1="116.54" x2="262.1" y2="116.54" gradientTransform="translate(-37.9 -19.6)" gradientUnits="userSpaceOnUse"><stop offset="0" stop-color="#ac4a9c"/><stop offset="1" stop-color="#00af64"/></linearGradient><linearGradient id="c" x1="170.53" y1="210.01" x2="245.78" y2="210.01" gradientTransform="translate(-21.6 -32.7)" gradientUnits="userSpaceOnUse"><stop offset="0" stop-color="#9669a4"/><stop offset="1" stop-color="#456b4d"/></linearGradient><linearGradient id="d" x1="189.77" y1="193.41" x2="244.97" y2="193.41" xlink:href="#c"/><linearGradient id="e" x1="22.17" y1="193.63" x2="77.69" y2="193.63" xlink:href="#c"/><linearGradient id="f" x1="21.62" y1="210.13" x2="96.75" y2="210.13" xlink:href="#c"/><linearGradient id="g" x1="133.96" y1="193.91" x2="189.77" y2="193.91" gradientTransform="translate(-21.6 -32.7)" gradientUnits="userSpaceOnUse"><stop offset="0" stop-color="#b34575"/><stop offset="1" stop-color="#248d64"/></linearGradient><linearGradient id="h" x1="77.69" y1="193.9" x2="133.96" y2="193.9" xlink:href="#g"/><linearGradient id="i" x1="59.18" y1="161.27" x2="133.95" y2="161.27" xlink:href="#g"/><linearGradient id="j" x1="133.96" y1="161.27" x2="208.15" y2="161.27" xlink:href="#g"/><linearGradient id="k" x1="78.05" y1="128.84" x2="133.96" y2="128.84" xlink:href="#g"/><linearGradient id="l" x1="133.96" y1="128.84" x2="189.4" y2="128.84" xlink:href="#g"/><linearGradient id="m" x1="96.75" y1="64.6" x2="133.96" y2="64.6" gradientTransform="translate(-21.6 -32.7)" xlink:href="#b"/><linearGradient id="n" x1="133.96" y1="64.9" x2="170.53" y2="64.9" gradientTransform="translate(-21.6 -32.7)" xlink:href="#b"/></defs><ellipse cx="112.1" cy="128.9" rx="78.4" ry="78.4" fill="url(#a)"/><polygon points="223.3 192.6 186.5 128.9 167.8 96.5 148.9 63.8 112.3 0.6 112 0 75.1 63.8 56.4 96.2 37.6 128.9 0.6 193 0 193.9 75.1 194 112.3 194 148.9 194 224.2 194 223.3 192.6" fill="url(#b)"/><polygon points="148.9 194 224.2 194 223.3 192.6 168.1 160.7 148.9 194" fill="url(#c)"/><polygon points="168.1 160.7 223.3 192.6 186.5 128.9 168.1 160.7" fill="url(#d)"/><polygon points="37.6 128.9 0.6 193 56.1 160.9 37.6 128.9" fill="url(#e)"/><polygon points="0.6 193 0 193.9 75.1 194 56.1 160.9 0.6 193" fill="url(#f)"/><polygon points="112.3 128.5 112.3 194 148.9 194 168.1 160.7 112.3 128.5" fill="url(#g)"/><polygon points="112.3 128.5 112.3 128.5 56.1 160.9 75.1 194 112.3 194 112.3 128.5" fill="url(#h)"/><polygon points="112.3 128.5 56.4 96.2 37.6 128.9 56.1 160.9 112.3 128.5" fill="url(#i)"/><polygon points="112.3 128.5 112.3 128.5 168.1 160.7 186.5 128.9 167.8 96.5 112.3 128.5" fill="url(#j)"/><polygon points="112.3 128.5 112.3 128.5 112.3 63.8 75.1 63.8 56.4 96.2 112.3 128.5" fill="url(#k)"/><polygon points="112.3 128.5 167.8 96.5 148.9 63.8 112.3 63.8 112.3 128.5" fill="url(#l)"/><polygon points="112.3 0.6 112 0 75.1 63.8 112.3 63.8 112.3 0.6" fill="url(#m)"/><polygon points="148.9 63.8 112.3 0.6 112.3 63.8 148.9 63.8" fill="url(#n)"/></svg>