<svg xmlns="http://www.w3.org/2000/svg" width="2500" height="1843.9" viewBox="0 0 2500 1843.9"><path d="M2500,880.9v82.3c-.8,4.4-1.8,8.8-2.3,13.3-4.2,35.8-7,71.8-12.9,107.3-19.2,115.5-60.7,222.9-122.5,322.1q-140.6,226-379.7,344.1a888.7,888.7,0,0,1-292.9,86.5c-22.7,2.6-45.3,4.9-67.9,7.4H743.5c-4.4-.8-8.8-2.1-13.3-2.4-88.5-5.6-173.7-25.8-255-61.3Q210,1664.1,80.3,1404.9A738.8,738.8,0,0,1,7.4,1162q-3.7-30.7-7.4-61.6v-79.8c.8-4.5,2.1-8.9,2.4-13.3C7,930.5,22.7,856,50.5,784.4q111.8-288.9,389.3-428c95.9-48,198.1-73.3,305-78.9,52.3-2.7,104.6.2,156.6,7.2,4.7.7,11.5-1.4,14.8-4.8,74.7-76.4,159.9-138.5,255.9-185.5,93.2-45.6,191.2-75,294.4-86.8,24.3-2.8,48.6-5,72.9-7.6h74.9c4.9.8,9.8,1.7,14.7,2.2,37.1,4.4,74.4,7.1,111.2,13.2,114.6,19.3,221.4,60.4,320.1,121.6Q2287.6,277.5,2406,517.3a888.1,888.1,0,0,1,86.6,293.2c2.6,23.5,4.9,46.9,7.4,70.4M1102.2,348.3c1.5,2,1.8,2.9,2.5,3.2a1015.4,1015.4,0,0,1,146.9,88.8c2.9,2.2,10.1,1.3,13.7-1,127.3-80.6,265.3-108.5,413.6-82.2,145.3,25.8,263.5,98.4,353.8,214.3C2135,702.6,2174,851,2145.8,1016.1c-18.9,110.6-63.3,209.9-138.6,293-137.4,151.6-309.6,214.3-512.2,187.8-124.7-16.4-232.4-70.2-321.5-160.2C1059.1,1221.1,944,1106.4,829.3,991.1,814,975.8,797,963.4,775,960.7c-38.5-4.7-73.4,14.5-90,49.1-14.8,30.8-12.9,65.6,19.2,97.2,127.9,125.5,254.7,252.2,382.4,377.9a633.2,633.2,0,0,0,70.1,59.7c93.4,67.7,198.6,105.2,312.5,120.3,89.4,11.8,178.1,9.3,266.2-10.5,167.9-37.8,307-123.5,416.6-255.7,90.5-109.3,145.2-234.9,164.3-375.9a738,738,0,0,0-6.9-241.8c-25.4-130.2-80.5-246.8-168.8-346C1972.2,245.9,1760.2,161.4,1508,180.3c-97,7.2-188.7,35.7-275.1,80.9a723.5,723.5,0,0,0-130.7,87.1m-61.7,1320.5-10.4-9.7c-52.3-49.4-104.9-98.4-156.5-148.4-10-9.7-19.2-14.4-33.4-14.1-52.3,1.3-104.7,1.5-156.2-10.1-256.4-58-405.3-336.7-310.8-582C447.7,711.1,654,593.3,857.5,629.6c91.2,16.3,171.2,54.9,236.9,122.7,80.1,82.7,162.7,163,243.6,244.9,18.5,18.6,39.7,27.1,65.2,23.5,33-4.7,59.3-20.4,71.2-52.8s6-62-18.1-86.4c-85-86.1-168-174.4-256.4-256.9C1028.4,464.7,826.1,417.1,602.4,485.1c-300.9,91.4-477,402.1-408.2,708.7,62.6,279.4,306.9,475.4,592.8,475.6h239.5c3.9,0,7.9-.3,14-.6" transform="translate(0 0)" fill="#da1f26"/></svg>