<svg xmlns="http://www.w3.org/2000/svg" width="290.2" height="329.1" viewBox="0 0 290.2 329.1"><polygon points="290.2 0 263.8 296.2 144.9 329.1 26.4 296.2 0 0 290.2 0" fill="#264de4"/><polygon points="241.1 277.3 263.7 24.2 145.1 24.2 145.1 303.9 241.1 277.3" fill="#2965f1"/><polygon points="60.5 134.1 63.8 170.4 145.1 170.4 145.1 134.1 60.5 134.1" fill="#ebebeb"/><polygon points="145.1 60.5 145 60.5 54 60.5 57.3 96.9 145.1 96.9 145.1 60.5" fill="#ebebeb"/><polygon points="145.1 266.2 145.1 228.4 144.9 228.5 104.5 217.5 101.9 188.6 82.2 188.6 65.4 188.6 70.5 245.6 144.9 266.3 145.1 266.2" fill="#ebebeb"/><polygon points="189.7 170.4 185.5 217.5 145 228.5 145 266.3 219.4 245.6 220 239.5 228.5 143.8 229.4 134.1 236 60.5 145 60.5 145 96.9 196.2 96.9 192.9 134.1 145 134.1 145 170.4 189.7 170.4" fill="#fff"/></svg>