<svg xmlns="http://www.w3.org/2000/svg" width="1002.9" height="719.8" viewBox="0 0 1002.9 719.8"><path d="M361.3,340.7c109.3,0,218.6.2,327.9-.1a178.8,178.8,0,0,0,70.9-14.8c3.9-1.7,5.2-3,2.6-7.4-20.8-35.8-23-73.7-12.4-112.9a189.9,189.9,0,0,1,31.3-64.2c1.3-1.9,2.2-2.8,4.7-1.4,40.7,22.2,68.5,54.8,80.7,100a65.8,65.8,0,0,1,2.3,10.7c.3,3.1,1.5,3.2,4.2,2.8,28.4-4.2,56.7-4.8,84.8,2.5,15.4,4,29.8,10.2,42,20.9,2.6,2.3,3.2,3.9,2.1,7-15.8,45.5-48.3,73.1-93.3,87-17.8,5.5-36.2,7.4-54.8,6.9-4.5-.1-6.2,1.4-7.8,5.4-18.7,47.1-40.9,92.5-69.9,134.3C713.8,607.8,628.5,666.6,523,696.8c-47.2,13.6-95.5,20.5-144.6,22.4-54.2,2.1-107.9-1.3-160.8-13.4-35.7-8.2-70-20.1-100.2-41.7-36.2-26-61.1-60.9-79.4-101C20.4,524.7,10.1,484.3,4.5,442.4A545.9,545.9,0,0,1,0,374.7c-.2-20.9,13-34,33.9-34Z" fill="#2496ec"/><path d="M552.6,0c3.9,2.4,5.1,5.9,5.1,10.5-.2,24.6-.1,49.3-.1,73.9,0,7.3-2.5,9.9-9.9,9.9H463.3c-7.3,0-9.8-2.5-9.8-9.9,0-24.7.1-49.3-.1-73.9,0-4.6,1.3-8.1,5.2-10.5Z" fill="#2496ec"/><path d="M259.3,227h42c7.3,0,9.9,2.6,10,9.9v74.4c-.1,7.3-2.6,10.1-9.9,10.1q-42.3.2-84.4,0c-7.4,0-10-2.7-10.1-10V237c.1-7.5,2.8-10,10.5-10Z" fill="#2596ec"/><path d="M258.9,207.9H217c-7.2,0-10-2.8-10.1-10V123.5c.1-7.5,2.8-10.1,10.4-10.1q41.8-.2,83.5,0c7.9,0,10.5,2.6,10.5,10.5v73.4c0,8.1-2.6,10.6-10.9,10.6Z" fill="#2596ec"/><path d="M383.5,227h42c6.9,0,9.7,2.7,9.7,9.7q.2,37.4,0,74.9c0,7-2.7,9.8-9.6,9.8q-42.5.2-85,0c-6.9,0-9.7-2.8-9.7-9.8q-.1-37.4,0-74.9c0-7.1,2.9-9.7,10.2-9.7Z" fill="#2596ec"/><path d="M629.2,227h41.9c7.5,0,10.2,2.6,10.2,10.2v74c0,7.4-2.6,10.2-9.8,10.2q-42.4.2-84.9,0c-7,0-9.7-2.9-9.7-9.9q-.1-37.2,0-74.4c0-7.5,2.8-10.1,10.3-10.1Z" fill="#2596ec"/><path d="M382.6,207.9H341.1c-7.4,0-10.2-2.7-10.2-10.3q-.1-36.9,0-73.9c0-7.6,2.7-10.3,10.2-10.3,28-.1,55.9-.1,83.9,0,7.5,0,10.2,2.7,10.2,10.3.1,24.6.1,49.3,0,73.9,0,7.8-2.7,10.3-10.7,10.3Z" fill="#2596ec"/><path d="M137.2,227h42.5c6.6,0,9.5,2.7,9.5,9.4q.2,37.7,0,75.4c0,7-2.8,9.4-9.9,9.4q-42.2.2-84.4,0c-7.4,0-10-2.5-10-9.8V236.5c0-6.8,2.9-9.5,9.9-9.5Z" fill="#2596ec"/><path d="M505.5,113.6h42c7.7,0,10.1,2.4,10.1,10.1v73.9c0,7.7-2.6,10.3-10.1,10.3H463.6c-7.5,0-10.1-2.6-10.1-10.2V123.8c0-7.8,2.4-10.2,10.1-10.2Z" fill="#2496ec"/><path d="M505.2,321.3H463.3c-7.4,0-9.8-2.5-9.8-9.9V236.9c0-7.4,2.6-9.9,9.9-9.9h84.4c7.2,0,9.8,2.6,9.8,10v74.4c0,7.3-2.5,9.8-9.9,9.8Z" fill="#2496ec"/></svg>