<svg xmlns="http://www.w3.org/2000/svg" xmlns:xlink="http://www.w3.org/1999/xlink" width="2289.8" height="2130" viewBox="0 0 2289.8 2130"><defs><linearGradient id="a" x1="203.51" y1="-729.02" x2="967.99" y2="595.02" gradientTransform="translate(0 1132)" gradientUnits="userSpaceOnUse"><stop offset="0" stop-color="#18884f"/><stop offset="0.5" stop-color="#117e43"/><stop offset="1" stop-color="#0b6631"/></linearGradient></defs><path d="M1437.8,1011.8,532.5,852V2032.4a97.6,97.6,0,0,0,97.6,97.6h1562a97.6,97.6,0,0,0,97.7-97.6h0V1597.5Z" fill="#185c37"/><path d="M1437.8,0H630.1a97.6,97.6,0,0,0-97.6,97.6h0V532.5L1437.8,1065,1917,1224.8,2289.8,1065V532.5Z" fill="#21a366"/><path d="M532.5,532.5h905.3V1065H532.5Z" fill="#107c41"/><path d="M1180.4,426H532.5V1757.2h647.9a97.9,97.9,0,0,0,97.6-97.6V523.6A98,98,0,0,0,1180.4,426Z" opacity="0.1" style="isolation:isolate"/><path d="M1127.1,479.2H532.5V1810.5h594.6a98,98,0,0,0,97.7-97.6V576.9A98,98,0,0,0,1127.1,479.2Z" opacity="0.2" style="isolation:isolate"/><path d="M1127.1,479.2H532.5V1704h594.6a98,98,0,0,0,97.7-97.6V576.9A98,98,0,0,0,1127.1,479.2Z" opacity="0.2" style="isolation:isolate"/><path d="M1073.9,479.2H532.5V1704h541.4a98,98,0,0,0,97.6-97.6V576.9A98,98,0,0,0,1073.9,479.2Z" opacity="0.2" style="isolation:isolate"/><path d="M97.6,479.2h976.3a97.7,97.7,0,0,1,97.6,97.7v976.2a97.6,97.6,0,0,1-97.6,97.6H97.6A97.5,97.5,0,0,1,0,1553.1V576.9A97.7,97.7,0,0,1,97.6,479.2Z" fill="url(#a)"/><path d="M302.3,1382.3l205.3-318.2L319.5,747.7H470.8L573.5,950c9.5,19.3,16,33.5,19.5,43h1.3q10.2-23.1,21.3-44.7L725.4,747.8H864.3L671.4,1062.3l197.8,320H721.4L602.8,1160.2a192.6,192.6,0,0,1-14.2-29.7h-1.7a141.2,141.2,0,0,1-13.8,28.8L451,1382.3Z" fill="#fff"/><path d="M2192.1,0H1437.8V532.5h852V97.6A97.6,97.6,0,0,0,2192.1,0Z" fill="#33c481"/><path d="M1437.8,1065h852v532.5h-852Z" fill="#107c41"/></svg>