<svg xmlns="http://www.w3.org/2000/svg" width="142.9" height="142.9" viewBox="0 0 142.9 142.9"><path d="M127.6,71.5H91.9V81.7h24.5a46.2,46.2,0,0,1-29.6,33.1L28.1,56.1A45.9,45.9,0,0,1,71.5,25.5a47.2,47.2,0,0,1,37.7,19.4l7.7-6.6a56.3,56.3,0,0,0-45.4-23c-26.6,0-49,18.9-54.7,43.9l67.4,67.4C108.7,120.4,127.6,98,127.6,71.5Z" fill="#fff"/><path d="M15.3,72a54.7,54.7,0,0,0,16.3,38.8,55.8,55.8,0,0,0,38.8,16.3Z" fill="#fff"/><path d="M71.5,0a71.5,71.5,0,1,0,71.4,71.5A71.7,71.7,0,0,0,71.5,0ZM31.6,111.3A55.6,55.6,0,0,1,15.3,72.5l55.6,55.1C56.7,127.1,42.4,122,31.6,111.3Zm52.1,14.8L16.8,59.2c5.7-25,28.1-43.9,54.7-43.9a56.3,56.3,0,0,1,45.4,23l-7.7,6.6A47.2,47.2,0,0,0,71.5,25.5,46.4,46.4,0,0,0,28.1,56.1l58.7,58.7a46.2,46.2,0,0,0,29.6-33.1H91.9V71.5h35.7C127.6,98,108.7,120.4,83.7,126.1Z" fill="#639"/></svg>