<svg xmlns="http://www.w3.org/2000/svg" width="91.9" height="91.9" viewBox="0 0 91.9 91.9"><path d="M90.2,41.9,50,1.7a5.9,5.9,0,0,0-8.3,0l-8.4,8.4L43.9,20.6a7.1,7.1,0,0,1,7.2,1.7,6.9,6.9,0,0,1,1.7,7.3L63,39.8a7.1,7.1,0,0,1,7.3,1.6,7.2,7.2,0,0,1,0,10,7,7,0,0,1-11.5-7.7l-9.5-9.5v25a7.9,7.9,0,0,1,1.8,1.4,7,7,0,1,1-9.9,0A7.3,7.3,0,0,1,43.5,59V33.8a5.7,5.7,0,0,1-2.3-1.5,7,7,0,0,1-1.5-7.7L29.2,14.2,1.7,41.7a5.9,5.9,0,0,0,0,8.3L41.9,90.2a5.9,5.9,0,0,0,8.3,0l40-40A5.9,5.9,0,0,0,90.2,41.9Z" fill="#f05133"/></svg>