<svg xmlns="http://www.w3.org/2000/svg" width="1024" height="998.7" viewBox="0 0 1024 998.7"><path d="M512,0C229.1,0,0,229.1,0,512,0,738.6,146.6,929.9,350.1,997.8c25.6,4.4,35.2-10.9,35.2-24.4s-.7-52.4-.7-95.3C256,901.8,222.7,846.7,212.5,817.9c-5.8-14.7-30.7-60.1-52.5-72.3-17.9-9.6-43.5-33.3-.6-33.9,40.3-.7,69.1,37.1,78.7,52.5,46.1,77.4,119.7,55.6,149.1,42.2,4.5-33.3,17.9-55.7,32.6-68.5C305.9,725.1,186.9,681,186.9,485.1c0-55.7,19.8-101.7,52.5-137.6-5.2-12.8-23.1-65.3,5.1-135.7,0,0,42.9-13.4,140.8,52.5a482.2,482.2,0,0,1,256,0c97.9-66.5,140.8-52.5,140.8-52.5,28.1,70.4,10.2,122.9,5.1,135.7,32.6,35.9,52.5,81.3,52.5,137.6,0,196.5-119.7,240-233.6,252.8,18.5,16,34.5,46.7,34.5,94.7,0,68.5-.6,123.6-.6,140.8,0,13.5,9.6,29.5,35.2,24.4C877.4,929.9,1024,737.9,1024,512,1024,229.1,794.9,0,512,0Z" fill="#1b1f23" fill-rule="evenodd"/></svg>