<svg xmlns="http://www.w3.org/2000/svg" width="205.4" height="76.7" viewBox="0 0 205.4 76.7"><path d="M15.5,23.2c-.4,0-.5-.2-.3-.5L17.3,20a1.4,1.4,0,0,1,1.1-.5H54.1c.4,0,.5.3.3.6l-1.7,2.6a1.5,1.5,0,0,1-1,.6Z" fill="#00acd7"/><path d="M24.6,41.6c-.4,0-.5-.3-.3-.6l1.4-2.5a1.3,1.3,0,0,1,1-.6h20c.4,0,.6.3.6.7L47.1,41a.8.8,0,0,1-.7.7Z" fill="#00acd7"/><path d="M.4,32.4c-.4,0-.5-.2-.3-.5l2.1-2.7a1.4,1.4,0,0,1,1.1-.5H48.9a.5.5,0,0,1,.5.6l-.8,2.4a.9.9,0,0,1-.9.6Z" fill="#00acd7"/><path d="M161.5,76.7c-9.1-.2-17.4-2.8-24.4-8.8a31.4,31.4,0,0,1-10.8-19.3c-1.8-11.3,1.3-21.3,8.1-30.2s16.1-14.6,28-16.7c10.2-1.8,19.8-.8,28.5,5.1S203.7,19.5,205,29.1c1.7,13.5-2.2,24.5-11.5,33.9a45.8,45.8,0,0,1-24,12.8C166.8,76.3,164.1,76.4,161.5,76.7Zm23.8-40.4A28.8,28.8,0,0,0,185,33c-1.8-9.9-10.9-15.5-20.4-13.3s-15.3,8-17.5,17.4A16.5,16.5,0,0,0,156.3,56a18.3,18.3,0,0,0,16.3-.6C180.5,51.3,184.8,44.9,185.3,36.3Z" fill="#00acd7"/><path d="M128.4,21.4l-16.8,4.4c-1.5.4-1.6.5-2.9-1A13.4,13.4,0,0,0,104,21c-6.3-3.1-12.4-2.2-18.1,1.5a21.3,21.3,0,0,0-10.2,19A15.7,15.7,0,0,0,89.2,57.2c6.8.9,12.5-1.5,17-6.6.9-1.1,1.7-2.3,2.7-3.7H89.6c-2.1,0-2.6-1.3-1.9-3s3.7-8.3,5.1-10.9a2.7,2.7,0,0,1,2.5-1.6h36.4c-.2,2.7-.2,5.4-.6,8.1a42.6,42.6,0,0,1-8.2,19.6c-7.2,9.5-16.6,15.4-28.5,17-9.8,1.3-18.9-.6-26.9-6.6A31.4,31.4,0,0,1,54.8,47.3C53.5,36.4,56.7,26.6,63.3,18A44.4,44.4,0,0,1,91.3.7c9.4-1.7,18.4-.6,26.5,4.9a31.3,31.3,0,0,1,11.6,14.1C130,20.6,129.6,21.1,128.4,21.4Z" fill="#00acd7"/></svg>