<svg xmlns="http://www.w3.org/2000/svg" width="392.2" height="533.9" viewBox="0 0 392.2 533.9"><path d="M10.6,300.5c.8,15.7,16.5,8.5,23.7,3.5s8.7-.8,9.3-10c.4-6,1.1-12.1.7-18.2-10.2-.9-21.3,1.5-29.7,7.6-4.3,3.1-12.4,13.2-4,17.1" transform="translate(-5.4 -11.6)" fill="#f6d2a2" stroke="#000" stroke-linecap="round" stroke-width="3" fill-rule="evenodd"/><path d="M10.6,300.5c2.3-.9,4.8-1.5,6.3-3.5" transform="translate(-5.4 -11.6)" fill="#c6b198" stroke="#000" stroke-linecap="round" stroke-width="3" fill-rule="evenodd"/><path d="M47,112.9c-60.3-17-15.5-93.7,33-62.2Z" transform="translate(-5.4 -11.6)" fill="#6ad7e5" stroke="#000" stroke-linecap="round" stroke-width="3" fill-rule="evenodd"/><path d="M314.9,45c47.7-33.5,90.9,42.1,35.4,61.1Z" transform="translate(-5.4 -11.6)" fill="#6ad7e5" stroke="#000" stroke-linecap="round" stroke-width="3" fill-rule="evenodd"/><path d="M325.2,494.3c12.1,7.5,34.2,30.2,16.1,41.2-17.5,16-27.3-17.5-42.6-22.2C305.3,504.3,313.6,496.2,325.2,494.3Z" transform="translate(-5.4 -11.6)" fill="#f6d2a2" stroke="#000" stroke-linecap="round" stroke-width="3" fill-rule="evenodd"/><path d="M341.3,535.5c-2.7-5.3-3.6-11.6-8.1-15.9" transform="translate(-5.4 -11.6)" fill="none" stroke="#000" stroke-linecap="round" stroke-width="3"/><path d="M108.6,520c-14.2,2.2-22.3,15-34.1,21.5S59,539.4,58,537.6s-1.6.8-4.3-2c-10.4-16.3,10.8-28.3,21.8-36.4C90.9,496.1,100.5,509.4,108.6,520Z" transform="translate(-5.4 -11.6)" fill="#f6d2a2" stroke="#000" stroke-linecap="round" stroke-width="3" fill-rule="evenodd"/><path d="M58,537.6c.6-6.2,5.5-10.4,7.9-15.7" transform="translate(-5.4 -11.6)" fill="none" stroke="#000" stroke-linecap="round" stroke-width="3"/><path d="M49.5,91.7c-7.9-4.2-13.8-10-8.9-19.2s12.9-7.6,20.8-3.3Z" transform="translate(-5.4 -11.6)" fill-rule="evenodd"/><path d="M337.7,83.7c8-4.2,13.8-10,8.9-19.2s-12.8-7.5-20.8-3.3Z" transform="translate(-5.4 -11.6)" fill-rule="evenodd"/><path d="M392.5,298.5c-.8,15.7-16.5,8.5-23.7,3.5s-8.7-.8-9.3-10c-.4-6-1.1-12.1-.7-18.2,10.2-.9,21.3,1.5,29.7,7.6,4.3,3.1,12.4,13.2,4,17.1" transform="translate(-5.4 -11.6)" fill="#f6d2a2" stroke="#000" stroke-linecap="round" stroke-width="3" fill-rule="evenodd"/><path d="M392.5,298.5c-2.3-.9-4.7-1.5-6.3-3.5" transform="translate(-5.4 -11.6)" fill="#c6b198" stroke="#000" stroke-linecap="round" stroke-width="3" fill-rule="evenodd"/><path d="M195.5,13.1c60.4,0,117,8.7,146.5,66.7,26.4,65,17,135.1,21.1,203.8,3.4,59,11.1,127.1-16.2,181.8-28.8,57.5-100.8,72-160,69.8-46.6-1.6-102.8-16.8-129.1-59.4C27,425.9,41.6,351.7,43.8,296.2c2.6-65.7-17.8-131.7,3.8-196.1,22.4-66.7,82.9-81.8,147.9-87" transform="translate(-5.4 -11.6)" fill="#6ad7e5" stroke="#000" stroke-linecap="round" stroke-width="3" fill-rule="evenodd"/><path d="M206.2,94.2c10.8,63,113.8,46.3,99-17.2-13.3-57-102.6-41.2-99,17.2" transform="translate(-5.4 -11.6)" fill="#fff" stroke="#000" stroke-linecap="round" stroke-width="2.91" fill-rule="evenodd"/><path d="M83.1,104.3c14,54.9,101.9,40.9,98.6-14.2-4-65.9-112-53.1-98.6,14.2" transform="translate(-5.4 -11.6)" fill="#fff" stroke="#000" stroke-linecap="round" stroke-width="2.82" fill-rule="evenodd"/><path d="M218.6,169.8c0,8.2,1.9,17.3.3,26.1-2.1,3.9-6.2,4.3-9.7,5.9a14.2,14.2,0,0,1-11-8.5c-1.2-10,.5-19.6.8-29.5Z" transform="translate(-5.4 -11.6)" fill="#fff" stroke="#000" stroke-linecap="round" stroke-width="3" fill-rule="evenodd"/><ellipse cx="101.9" cy="83.8" rx="14.8" ry="16.1"/><ellipse cx="108.6" cy="87.4" rx="3.5" ry="4.1" fill="#fff"/><ellipse cx="226.1" cy="79.8" rx="14.6" ry="16.1"/><ellipse cx="232.8" cy="83.4" rx="3.4" ry="4.1" fill="#fff"/><path d="M176.2,168.9c-6.5,15.6,3.6,47,21.2,23.9-1.3-10,.4-19.6.8-29.5Z" transform="translate(-5.4 -11.6)" fill="#fff" stroke="#000" stroke-linecap="round" stroke-width="3" fill-rule="evenodd"/><path d="M178.4,138.7c-12,1-21.9,15.3-15.6,26.7,8.3,15,26.8-1.3,38.4.2,13.2.3,24.1,14,34.8,2.5s-5.1-25.4-18.4-31Z" transform="translate(-5.4 -11.6)" fill="#f6d2a2" stroke="#231f20" stroke-linecap="round" stroke-width="3" fill-rule="evenodd"/><path d="M176.9,138c-.9-20.8,39-23.5,43.7-6s-41.7,21.5-43.7,6Z" transform="translate(-5.4 -11.6)" fill-rule="evenodd"/></svg>