<svg xmlns="http://www.w3.org/2000/svg" width="229.2" height="310.7" viewBox="0 0 229.2 310.7"><path d="M150.1.9s32.1,32.7-30.7,82c-50.3,40-11.4,62.8,0,88.8-29.6-26.5-50.8-49.8-36.3-71.6C104.4,67.9,163,52.3,150.1.9Zm-16.7,149c15.1,17.1-4.1,32.7-4.1,32.7s38.4-19.7,20.8-44.1C134,115.1,121.5,103.7,189,64.8c0,0-106.4,26.4-55.6,85.1Z" transform="translate(-4.2 -0.9)" fill="#f58219"/><path d="M78.3,241.1s-12,7.3,8.3,9.4c24.4,3.1,37.4,2.6,64.3-2.6a104.2,104.2,0,0,0,17.2,8.3c-60.8,25.9-137.6-1.6-89.8-15.1Zm-7.8-33.7s-13,9.8,7.3,11.9c26.4,2.6,47.2,3.1,83-4.1a31.1,31.1,0,0,0,12.5,7.7C100.1,244.7,18.1,225,70.5,207.4Zm143.3,59.1s8.8,7.3-9.9,13c-34.8,10.4-145.9,13.5-177,0-10.9-4.6,9.8-11.4,16.6-12.4a50.1,50.1,0,0,1,10.4-1.6c-12-8.3-79.4,17.1-34.3,24.4,124.1,20.3,226.3-8.8,194.2-23.4ZM84,172.1s-56.6,13.5-20.3,18.1c15.6,2.1,46.2,1.6,74.8-.5,23.3-2.1,46.7-6.2,46.7-6.2a115.6,115.6,0,0,0-14,7.3c-57.6,15-168.2,8.3-136.5-7.3,27-13,49.3-11.4,49.3-11.4Zm101.2,56.6c58.1-30.2,31.2-59.2,12.5-55.6a37.4,37.4,0,0,0-6.8,2.1,9.3,9.3,0,0,1,5.2-4.2c36.9-12.9,65.9,39-11.9,59.2a6.2,6.2,0,0,0,1-1.5Zm-95.5,82c56.1,3.6,141.7-2.1,143.8-28.6,0,0-4.2,10.4-46.2,18.2-47.8,8.8-106.9,7.8-141.7,2.1,0,0,7.2,6.2,44.1,8.3Z" transform="translate(-4.2 -0.9)" fill="#4e7896"/></svg>