<svg xmlns="http://www.w3.org/2000/svg" width="225.5" height="311.9" viewBox="0 0 225.5 311.9"><path d="M222.1,150.4c0,61.8-48.9,111.9-109.3,111.9S3.4,212.2,3.4,150.4,52.4,38.5,112.8,38.5,222.1,88.6,222.1,150.4" transform="translate(0 -0.1)" fill="#d33833" fill-rule="evenodd"/><path d="M7.9,178.1s-8-116.6,99.5-120L99.9,45.6,41.6,65.2,24.9,84.4,10.4,112.3,2,144.8l2.5,21.7" transform="translate(0 -0.1)" fill="#ef3d3a"/><path d="M37.9,74.1A109.2,109.2,0,0,0,6.8,150.8h0a109.7,109.7,0,0,0,31.1,76.8h0a104.4,104.4,0,0,0,74.9,31.7h0a104.6,104.6,0,0,0,74.9-31.7h0a109.6,109.6,0,0,0,31-76.8h0a109.2,109.2,0,0,0-31-76.7h0a104.6,104.6,0,0,0-74.9-31.7h0A104.4,104.4,0,0,0,37.9,74.1ZM33,232.3A116.1,116.1,0,0,1,0,150.8H0A115.9,115.9,0,0,1,33,69.4h0a111.1,111.1,0,0,1,79.8-33.8h0a110.9,110.9,0,0,1,79.7,33.8h0a115.9,115.9,0,0,1,33,81.4h0a116.1,116.1,0,0,1-33,81.5h0a110.9,110.9,0,0,1-79.7,33.8h0A111.1,111.1,0,0,1,33,232.3h0" transform="translate(0 -0.1)" fill="#231f20"/><path d="M158.8,151l-16.7,2.5L119.6,156l-14.5.5L90.9,156l-10.8-3.3-9.6-10.4L63,121l-1.7-4.5-10-3.4-5.8-9.6L41.3,89.8l4.6-12.1L56.7,74l8.8,4.1,4.1,9.2,5-.8,1.7-2.1-1.7-9.6-.4-12.1L76.7,46V36.5l7.6-12.1,13.4-9.6,23.3-10,25.8,3.7,22.5,16.3,10.4,16.7,6.7,12,1.7,30-5,25.9-9.2,22.9-8.7,12.1" transform="translate(0 -0.1)" fill="#f0d6b7" fill-rule="evenodd"/><path d="M144.6,223.1l-59.5,2.5v10l5,35-2.5,2.9L45.9,259.4l-2.9-5-4.2-47.1L29.2,179l-2.1-6.7,33.4-22.9,10.4-4.2,9.2,11.3,7.9,7,9.1,3,4.2,1.2,5,21.7,3.8,4.6,9.5-3.4L113,203.5l36.2,17.1-4.6,2.5" transform="translate(0 -0.1)" fill="#335061" fill-rule="evenodd"/><path d="M45.9,77.7,56.7,74l8.8,4.1,4.1,9.2,5-.8,1.3-5-2.5-9.6L75.9,49,73.8,36.5l7.5-8.8L97.6,14.8,93,8.5,70.1,19.8l-9.6,7.5L55.1,39,46.7,50.2,44.2,63.5l1.7,14.2" transform="translate(0 -0.1)" fill="#6d6b6d" fill-rule="evenodd"/><path d="M63,38.5s6.2-15.4,31.2-22.9,1.3-5.4,1.3-5.4L68.4,20.6,58,31l-4.6,8.4,9.6-.9" transform="translate(0 -0.1)" fill="#dcd9d8" fill-rule="evenodd"/><path d="M50.5,74.8S41.7,45.6,75.1,41.5l-1.3-5L50.9,41.9,44.2,63.5l1.7,14.2,4.6-2.9" transform="translate(0 -0.1)" fill="#dcd9d8" fill-rule="evenodd"/><path d="M63.8,113.5l5.5-5.2a3.3,3.3,0,0,1,2.8,3.2c.5,2.9,1.7,29.1,19.6,43.3,1.7,1.3-13.3-2.1-13.3-2.1L65.1,131.9" transform="translate(0 -0.1)" fill="#f7e4cd" fill-rule="evenodd"/><path d="M140.5,105.6s1-12.6,4.4-11.6a4.6,4.6,0,0,1,3.4,4.3s-8.3,5.4-7.8,7.3" transform="translate(0 -0.1)" fill="#f7e4cd" fill-rule="evenodd"/><path d="M175.1,59.4s-6.9,1.4-7.5,7.5,7.5,1.2,8.7.8" transform="translate(0 -0.1)" fill="#f7e4cd"/><path d="M124.6,59.8s-9.1,1.2-9.1,7.1,10.4,5.4,13.3,2.9" transform="translate(0 -0.1)" fill="#f7e4cd"/><path d="M68,86.9s-15.9-9.6-17.5-.4-5.4,15.8,2.5,25.4l-5.4-1.7-5-12.9L40.9,84.8l9.6-10,10.8.8,6.3,5,.4,6.3" transform="translate(0 -0.1)" fill="#f7e4cd" fill-rule="evenodd"/><path d="M75.5,60.6S82.6,24,118.4,16.9c29.5-5.9,45,1.2,50.8,7.9,0,0-26.2-31.3-51.2-21.7S74.6,30.2,75.1,41.5c.7,19.1.4,19.1.4,19.1" transform="translate(0 -0.1)" fill="#f7e4cd" fill-rule="evenodd"/><path d="M172.1,29s-12-.5-12.5,10.4a7.8,7.8,0,0,0,.9,3.3s9.6-10.8,15.4-5" transform="translate(0 -0.1)" fill="#f7e4cd" fill-rule="evenodd"/><path d="M119.2,43.8s-2-16.6-16.2-6.9c-9.2,6.2-8.4,15-6.7,16.6s1.2,5.1,2.5,2.8.8-9.8,5.4-11.9,12.1-4.4,15-.6" transform="translate(0 -0.1)" fill="#f7e4cd" fill-rule="evenodd"/><path d="M80.1,156.5,40.9,174s16.2,64.5,7.9,84.5l-5.8-2-.4-24.6L31.7,185.2l-4.6-12.9L68,144.8l12.1,11.7" transform="translate(0 -0.1)" fill="#49728b" fill-rule="evenodd"/><path d="M84.1,192.2l5.5,6.8v25H83s-.9-17.5-.9-19.6.9-9.6.9-9.6" transform="translate(0 -0.1)" fill="#49728b" fill-rule="evenodd"/><path d="M84.2,227.7l-18.7.8,5.4,3.8,13.3,2.1" transform="translate(0 -0.1)" fill="#49728b" fill-rule="evenodd"/><path d="M148.4,223.5l15.4-.4,3.8,38.4-15.9,2-3.3-40" transform="translate(0 -0.1)" fill="#335061" fill-rule="evenodd"/><path d="M152.6,223.5l23.3-1.2s9.6-24.2,9.6-25.4,8.3-35,8.3-35l-18.7-19.6-3.8-3.3-10,10v38.7l-8.7,35.8" transform="translate(0 -0.1)" fill="#335061" fill-rule="evenodd"/><path d="M163,220.6l-14.6,2.9,2.1,11.7c5.4,2.5,14.6-4.2,14.6-4.2" transform="translate(0 -0.1)" fill="#49728b" fill-rule="evenodd"/><path d="M163.4,147.7l29.2,21.7.8-10L171.3,139l-7.9,8.7" transform="translate(0 -0.1)" fill="#49728b" fill-rule="evenodd"/><path d="M98.7,305.6l-8.6-35-4.3-25.8-.7-19.2,39-2.1h24.3l-2.2,43.8,3.7,33.7-.4,6.3-31.6,2.5-19.2-4.2" transform="translate(0 -0.1)" fill="#fff" fill-rule="evenodd"/><path d="M143,223.1s-2.1,43.4,4.1,74.2a79.9,79.9,0,0,1-30.8,10l35-1.3,4.2-2.5-5-68.3-1.3-14.6" transform="translate(0 -0.1)" fill="#dcd9d8" fill-rule="evenodd"/><path d="M168.3,258.1l16.2-4.6,30.9-1.6,4.5-14.2-8.3-24.6-9.6-1.2L188.7,216l-12.8,6.3-6.8-1.3-5.3,2.1" transform="translate(0 -0.1)" fill="#fff" fill-rule="evenodd"/><path d="M168,249.8s10.8-5,12.5-4.6l-4.6-22.9,5.4-2.1s3.8,21.7,3.8,24.2l25.4,1.2s5-9.6,3.7-19.6l4.6,13.4.4,7.5-6.6,10-7.5,1.6-12.5-.4-4.2-5.4-14.6,2.1-4.6,1.7" transform="translate(0 -0.1)" fill="#dcd9d8" fill-rule="evenodd"/><path d="M151.6,220.2l-9.2-23.3-9.5-13.8s2-5.8,5-5.8h9.5l9.2,3.3-.8,15.4-4.2,24.2" transform="translate(0 -0.1)" fill="#fff"/><path d="M153.4,212.3s-11.7-22.5-11.7-25.8c0,0,2.1-5,5-3.8s9.2,4.6,9.2,4.6v-7.9l-14.2-2.9-9.6,1.2L148.4,216l3.3.5" transform="translate(0 -0.1)" fill="#dcd9d8" fill-rule="evenodd"/><path d="M102.4,157.3,90.9,156l-10.8-3.3v3.8l5.3,5.8,16.6,7.5" transform="translate(0 -0.1)" fill="#fff"/><path d="M83.8,158.5s12.9,5.5,17.1,4.2l.4,5-11.7-2.5-7-5,1.2-1.7" transform="translate(0 -0.1)" fill="#dcd9d8" fill-rule="evenodd"/><path d="M168.2,178.7a77.9,77.9,0,0,1-19-2.6c.4-2.3-.4-4.6.2-6.2s4.2-1.1,6.5-1.4a11.1,11.1,0,0,0-7.2-.8,13.1,13.1,0,0,0-1.2-3.8c4-1.4,13.4-10.7,18.6-7.7,2.5,1.5,3.6,9.9,3.8,13.9s-.3,6.8-1.7,8.6" transform="translate(0 -0.1)" fill="#d33833" fill-rule="evenodd"/><path d="M168.2,178.7a77.9,77.9,0,0,1-19-2.6c.4-2.3-.4-4.6.2-6.2s4.2-1.1,6.5-1.4a11.1,11.1,0,0,0-7.2-.8,13.1,13.1,0,0,0-1.2-3.8c4-1.4,13.4-10.7,18.6-7.7,2.5,1.5,3.6,9.9,3.8,13.9S169.6,176.9,168.2,178.7Z" transform="translate(0 -0.1)" fill="none" stroke="#d33833" stroke-miterlimit="5" stroke-width="2.5"/><path d="M134.4,167.2v1.6c-2.3,1.4-5.8,1.4-8.2,2.6a22.8,22.8,0,0,1,8.8,2.2c-.1,1.4-.1,2.7-.2,4.1-4,2.8-7.7,6.9-12.5,9.5-2.2,1.2-10.1,4.4-12.5,3.8s-1.5-2-2.1-3.6c-1.1-3.4-3.8-8.8-4-13.9s-1-17.3,6-15.9a59.8,59.8,0,0,1,16.5,6c2.7,1.5,4.2,3.2,8.2,3.6" transform="translate(0 -0.1)" fill="#d33833" fill-rule="evenodd"/><path d="M134.4,167.2v1.6c-2.3,1.4-5.8,1.4-8.2,2.6a22.8,22.8,0,0,1,8.8,2.2c-.1,1.4-.1,2.7-.2,4.1-4,2.8-7.7,6.9-12.5,9.5-2.2,1.2-10.1,4.4-12.5,3.8s-1.5-2-2.1-3.6c-1.1-3.4-3.8-8.8-4-13.9s-1-17.3,6-15.9a59.8,59.8,0,0,1,16.5,6C128.9,165.1,130.4,166.8,134.4,167.2Z" transform="translate(0 -0.1)" fill="none" stroke="#d33833" stroke-miterlimit="5" stroke-width="2.5"/><path d="M138.4,174.9c-.6-3.6-1.3-4.6-1-7.6,9.4-6.3,11.1,10.7,1,7.6" transform="translate(0 -0.1)" fill="#d33833" fill-rule="evenodd"/><path d="M138.4,174.9c-.6-3.6-1.3-4.6-1-7.6C146.8,161,148.5,178,138.4,174.9Z" transform="translate(0 -0.1)" fill="none" stroke="#d33833" stroke-miterlimit="5" stroke-width="2.5"/><path d="M152,177.7s-2.9-4.2-.8-5.4,4.2,0,5.4-2.1,0-3.3.4-5.8,2.5-2.9,4.6-3.4,7.9-1.2,8.8.9l-2.5-7.5-5-1.7L147,161.9l-.8,4.6v9.1" transform="translate(0 -0.1)" fill="#ef3d3a" fill-rule="evenodd"/><path d="M108.3,191.5c-.5-6.5-1.1-13-1.6-19.5-.9-9.7,2.3-8,10.7-8,1.3,0,7.9,1.5,8.4,2.5,2.2,4.6-3.8,3.6,2.6,7.1s15-1.8,12.8-8.4c-1.2-1.4-6.4-.4-8.2-1.4l-9.8-5.1c-4.2-2.1-13.7-5.2-18.1-2.2-11.2,7.6.7,26.6,4.7,34.5" transform="translate(0 -0.1)" fill="#ef3d3a" fill-rule="evenodd"/><path d="M119.2,43.8c-11.3-2.6-17,4.8-20.4,12.5-3.1-.8-1.9-5-1.1-7.1,2.1-5.6,10.2-13,16.9-12,2.9.4,6.8,3.1,4.6,6.6" transform="translate(0 -0.1)" fill="#231f20" fill-rule="evenodd"/><path d="M174.6,56.8h.5c2.6,5.3,4.8,11,8,15.7-2.1,5-16.4,9.5-16.2.4,3.1-1.3,8.4-.3,11.2-2-1.6-4.3-3.9-8-3.5-14.1" transform="translate(0 -0.1)" fill="#231f20" fill-rule="evenodd"/><path d="M125.1,56.9c2.4,4.5,3.2,9.2,6.6,12.5,1.6,1.6,4.6,3.4,3.1,7.6-.3,1-2.9,3.2-4.4,3.7-5.4,1.6-18,.3-13.7-6.4,4.5.2,10.5,2.9,13.8-.4-2.6-4.1-7.1-12.2-5.4-17" transform="translate(0 -0.1)" fill="#231f20" fill-rule="evenodd"/><path d="M172.5,102.3c-8.1,5.2-17.2,10.9-30.5,9.6a9,9,0,0,1-1.2-11.7c1.4,2.5.5,7.1,4.5,7.8,7.6,1.3,16.4-4.7,21.9-6.7,3.4-5.7-.3-7.8-3.4-11.5-6.2-7.5-14.5-16.8-14.2-28.1,2.5-1.8,2.7,2.8,3.1,3.7,3.2,7.6,11.4,17.3,17.4,23.8,1.4,1.6,3.9,3.2,4.1,4.2.8,3.1-2,6.8-1.7,8.9" transform="translate(0 -0.1)" fill="#231f20" fill-rule="evenodd"/><path d="M65.1,96.8c-2.5-1.5-3.1-7.9-6.1-8.1s-3.5,8.3-3.5,13.4c-3-2.7-3.5-11-1.3-15.2-2.5-1.2-3.6,1.3-5,2.2,1.8-12.8,18.7-5.9,15.9,7.7" transform="translate(0 -0.1)" fill="#231f20" fill-rule="evenodd"/><path d="M177.7,107.6c-3.8,7.2-9.1,15.2-20.3,15.4-.2-2.3-.4-5.9.1-7.3,8.5-.8,13.7-5.1,20.2-8.1" transform="translate(0 -0.1)" fill="#231f20" fill-rule="evenodd"/><path d="M124.4,112.3c7.1,3.7,20.2,4.1,29.8,3.8a34,34,0,0,1,.5,7.3c-12.4.7-27-2.4-30.3-11.1" transform="translate(0 -0.1)" fill="#231f20" fill-rule="evenodd"/><path d="M123.1,119.2c4.9,12.4,21.7,10.9,36,10.6a8,8,0,0,1-3.7,4.2c-4.6,1.8-17.1,3.2-23.5-.1-4-2.2-6.6-7-8.8-9.8s-6.3-4.9,0-4.9" transform="translate(0 -0.1)" fill="#231f20" fill-rule="evenodd"/><path d="M171.9,187.2c-5.7,9.9-11.2,20-18.1,28.7,2.9-8.4,4.1-22.5,4.6-33.3,6-2.8,11.1.7,13.5,4.6" transform="translate(0 -0.1)" fill="#81b0c4" fill-rule="evenodd"/><path d="M202.9,222.7c-6.4,1.3-10.9,7.5-17.2,7.1,3.4-4.8,9.5-6.9,17.2-7.1" transform="translate(0 -0.1)" fill="#231f20" fill-rule="evenodd"/><path d="M205.8,232.8c-5.3.5-11.4,1.4-16.8.9,2.5-3.8,12.3-2.5,16.8-.9" transform="translate(0 -0.1)" fill="#231f20" fill-rule="evenodd"/><path d="M207.6,241.5c-5.9.1-13.2,0-18.9-.5,3.4-3.6,15.1-1.3,18.9.5" transform="translate(0 -0.1)" fill="#231f20" fill-rule="evenodd"/><path d="M160.8,265.3c.9,7.4,3.8,14.9,3.4,23-3.2,1.1-5.1,2.1-9.5,2.1-.3-6.9-1.2-17.5-.9-24,2.1.1,5.3-1.6,7-1.1" transform="translate(0 -0.1)" fill="#dcd9d8" fill-rule="evenodd"/><path d="M151.3,155.9c-3,2-5.5,4.4-8.3,6.5-6.4.3-9.8-.5-14.4-4.1,0-.3.5-.2.5-.5,6.8,3,15.4-1.3,22.2-1.9" transform="translate(0 -0.1)" fill="#f0d6b7" fill-rule="evenodd"/><path d="M115.8,202c1.9-8,9.1-12.2,15.8-16.6,6.8,8.6,10.9,19.8,15.5,30.5-10.8-3.2-21.8-8.5-31.3-13.9" transform="translate(0 -0.1)" fill="#81b0c4" fill-rule="evenodd"/><path d="M153.8,266.4c-.3,6.5.6,17.1.9,24,4.4,0,6.3-1,9.5-2.1.4-8.1-2.5-15.6-3.4-23C159.1,264.8,155.9,266.5,153.8,266.4ZM85.6,228.9c2.9,26.5,7.1,48.8,14.8,72.3,17,5.2,37.5,5.7,52.5,1-2.7-13.3-1.5-29.4-3.1-43.6-1.3-10.6-.6-21.3-2.3-32.1C129.3,222.7,103.5,225.6,85.6,228.9Zm66.2-2.3c-.2,11.4.5,22.7,1.4,34.1,4.4-.7,7.3-1.1,11.4-2-1.3-11-1.2-23.4-3.9-33.1C157.6,225.7,154.9,225.6,151.8,226.6Zm22.2-1.8c-2.1-.5-4.5,0-6.5,0,1,9.3,3.2,19.5,4,29.3,3.1.1,4.8-1.4,7.4-1.9.1-8.5-.8-20.3-4.9-27.4Zm33.6,30.7c6.5-1.6,10.6-9.6,8.8-17.7-1.2-5.5-3.4-15.9-5.7-19.4s-6.4-6-10.2-3.6c-6,3.8-16.7,5-21.1,9.7,2.2,7.3,2.9,17.5,3.8,26.8,7.6.5,16.9-2.1,23.2.6-4.4,1.5-10.1,1.5-13.9,3.5,3.1,1.5,10.4,1.2,15.1.1Zm-60.5-39.6c-4.6-10.7-8.7-21.9-15.5-30.5-6.7,4.4-13.9,8.6-15.8,16.6C125.3,207.4,136.3,212.7,147.1,215.9Zm11.3-33.3c-.5,10.8-1.7,24.9-4.6,33.3,6.9-8.7,12.4-18.8,18.1-28.7C169.5,183.3,164.4,179.8,158.4,182.6Zm-12.8-4.5c-2.6-.3-4.8,3-8.2,1.6-.7.8-1.4,1.8-2.2,2.6,7.4,8.9,10.8,21.7,16.5,32.2,3.1-10.1,2.8-21.2,3.4-32.2C150.9,182.5,148.6,178.4,145.6,178.1Zm-8.2-10.8c-.3,3,.4,4,1,7.6C148.5,178,146.8,161,137.4,167.3Zm-11.2-3.7a59.8,59.8,0,0,0-16.5-6c-7-1.4-6.3,9.5-6,15.9s2.9,10.5,4,13.9c.6,1.6.7,3.3,2.1,3.6s10.3-2.6,12.5-3.8c4.8-2.6,8.5-6.7,12.5-9.5.1-1.4.1-2.7.2-4.1a22.8,22.8,0,0,0-8.8-2.2c2.4-1.2,5.9-1.2,8.2-2.6v-1.6C130.4,166.8,128.9,165.1,126.2,163.6Zm-41.5-7.5c-3.6,3.6,10.1,8.6,14.5,8.9-.1-2.3,1.3-4.5,1-6.2C95,157.9,88.2,158.5,84.7,156.1Zm44.4,1.7c0,.3-.5.2-.5.5,4.6,3.6,8,4.4,14.4,4.1,2.8-2.1,5.3-4.5,8.3-6.5C144.5,156.5,135.9,160.8,129.1,157.8Zm40.8,12.3c-.2-4-1.3-12.4-3.8-13.9-5.2-3-14.6,6.3-18.6,7.7a13.1,13.1,0,0,1,1.2,3.8,11.1,11.1,0,0,1,7.2.8c-2.3.3-4.9.3-6.5,1.4s.2,3.9-.2,6.2a77.9,77.9,0,0,0,19,2.6C169.6,176.9,170.1,173.5,169.9,170.1ZM78.6,159.6c-1.1-.8-8.8-10.8-9.8-10.4-13.9,5.5-26.9,15-38.5,23.9,11.1,23.7,15.5,52.8,16.3,80.7,12.7,6,23.8,14.5,41,15.4-2-14.1-3.8-26.6-5-39.9-4.3-1.8-10.5.1-14.5-.5,0-4.9,6.2-2.2,6.7-5.4s-3.4-2.7-2.2-6.6c3.2,1.2,4.8,3.7,8.2,4.7,3.1-6.8,0-18.7.4-24.3.1-1.1.5-5.9,2.9-5s-.1,12.7.1,18.1-.6,9.6,1.4,12.7a466.8,466.8,0,0,1,51.4-4.2c-3.9-1.7-8.6-3.3-13.8-6.2-2.8-1.6-11.6-4.9-12.4-7.5-1.3-4.2,3.4-6.5,4.2-10.1-8.4,4.6-10-4.4-12-10.7a93.6,93.6,0,0,1-3.3-13.4c-7.2-3.4-14.9-6.9-21.1-11.3Zm84-9.2c11.5-5.6,13.6,21,9.1,29.5.7,2.6,3.1,3.6,4.1,5.8-6.5,11.6-13.6,22.4-20.2,33.8,4.9-3.1,11.9-.6,17.6-2.8,2.1-.9,3.7-5.7,5.3-9.5,4.3-10.6,8.9-24,11-34.1.5-2.3,1.7-7.4,1.4-9.4-.5-3.7-5.5-6.4-8-8.7-4.7-4.2-7.6-7.9-12.5-11.8-2,2.9-6.2,4.9-7.8,7.2ZM52.2,48c-5.5,6-4.4,17.4-3.7,25.5,9.9-6.3,23.2.5,23,11.1,4.8-.1,1.8-5.9.9-9.7-2.8-12.2,4.8-25.5.4-36.6A30,30,0,0,0,52.2,48ZM91.6,12.8C79.1,16.4,63.1,25.4,58,36.6c4-.6,6.7-2.6,10.6-2.8,1.5-.1,3.5.6,5.2.2,3.3-.9,6.2-8.5,8.8-11.3s5.4-3.9,7.5-6.4c1.3-.7,3.3-.6,3.3-2.6S92.3,12.6,91.6,12.8Zm64.9,3.3c-13-7.3-34.9-12.7-48.6-5.9C96.8,15.8,81.7,24.9,76.6,36.5c4.8,11.2-1.4,21.5-1.8,32.9-.2,6,2.9,11.3,3.1,17.9-1.6,2.7-6.6,3-10.1,2.8-1.2-5.8-3.2-12.4-9.2-13-8.5-.9-14.7,6.1-15.1,13.4s6.7,23,16.7,22c3.9-.4,4.8-4.3,9.1-4.2,2.3,4.5-3.6,6-4.2,9.2a27.6,27.6,0,0,0,.9,5.7c1.8,7.6,5.9,17.3,9.9,23.1s15.1,8.4,25.8,9.1c1.9-4.2,9-3.8,13.6-2.7-5.5-2.2-10.7-7.5-14.9-12.2s-9.8-11.2-10.1-18.2c9.2,12.8,16.9,24,33.7,29.6,12.7,4.3,27.5-1.9,37.2-8.8,4.1-2.8,6.5-7.4,9.4-11.5,10.8-15.5,15.8-37.6,14.7-59-.5-8.9-.4-17.7-3.4-23.6s-13.6-11.8-19.7-6.2c-1.2-6,5.1-9.8,12.4-7.6-5.2-6.8-10.7-14.9-18.1-19.1Zm24.1,199.5c10.1-5,29-13.5,35.3,0a119.9,119.9,0,0,1,6.3,18.6c1.7,7.3-1.9,22.6-9.3,25s-14.3,2-22.3.4a11.2,11.2,0,0,1-2.7-3.5c-5.7-.2-11,.3-15.5,2.6.4,4.2-2.4,4.9-5.1,5.8-1.9,7.8,4,18,2.6,25.1-1,5.1-7.3,5.9-11.9,6.9a44.3,44.3,0,0,0,.5,7.5c-1,3.9-5.7,6.1-10.2,6.6-14.7,1.8-37,2.6-51.2-2.5-3.9-9.6-7-21.4-10.3-32.5-13.8,1.5-25-5.9-35.5-10.8-3.6-1.7-8.6-2.6-10-5.5s-.8-8.2-1.1-13.3c-.8-12.9-1.6-25.4-5-38.7-1.5-6-4.2-11.2-6.1-17s-4.7-11.9-5.5-17.2c-1.2-7.9,6.2-8.3,11-11.7,7.3-5.3,13-8.2,21-12.9,2.3-1.5,9.4-5,10.2-6.7,1.6-3.2-2.7-7.8-3.9-10.4A32.4,32.4,0,0,1,58.8,120a22.1,22.1,0,0,1-14.7-9.5c-5-7.4-8.5-21-4.2-31.4.4-.9,2.1-2.5,2.3-3.7s-.9-5.8-1-8.4c-.5-13.5,2.3-25.2,11.4-29.3C56.3,23,69.5,18.1,81.9,10.8,86.6,8.1,91.7,6.4,97,4.4c19-7,48.2-5.7,64,6.3,6.7,5,17.4,15.7,21.2,23.4,10.1,20.5,9.4,54.6,2.3,79.4a74.8,74.8,0,0,1-4.2,12.3c-1.4,2.8-5.6,8.4-5,10.8s9.5,9.4,11.4,11.3c3.5,3.3,10,7.8,10.6,12s-2,10.6-3.3,15c-4.3,14.4-8.5,27.8-13.4,40.7" transform="translate(0 -0.1)" fill="#231f20" fill-rule="evenodd"/><path d="M113.1,115.4c.6-.7,3.6-1.8,7.8.2,0,0-5,.9-4.6,9.2l-2.1-.4s-2.1-7.6-1.1-9" transform="translate(0 -0.1)" fill="#f7e4cd" fill-rule="evenodd"/><path d="M149.6,187.1a2.3,2.3,0,1,1-4.5,0,2.3,2.3,0,1,1,4.5,0" transform="translate(0 -0.1)" fill="#1d1919" fill-rule="evenodd"/><path d="M151.9,197.7a2.3,2.3,0,1,1-2.3-2.3,2.3,2.3,0,0,1,2.3,2.3" transform="translate(0 -0.1)" fill="#1d1919" fill-rule="evenodd"/></svg>