<svg xmlns="http://www.w3.org/2000/svg" width="702.8" height="682" viewBox="0 0 702.8 682"><path d="M349,.1a46.4,46.4,0,0,0-17.9,4.5L86.7,121.3a46.3,46.3,0,0,0-25.2,31.5L1.2,415a46.5,46.5,0,0,0,6.3,35.6,30.7,30.7,0,0,0,2.7,3.6L179.3,664.5A46.7,46.7,0,0,0,215.8,682H487a47,47,0,0,0,36.6-17.4l169-210.3a46.2,46.2,0,0,0,9.1-39.2L641.3,152.7A46.6,46.6,0,0,0,616,121.3L371.6,4.6A46.3,46.3,0,0,0,349,.1Z" fill="#326ce5"/><path d="M351.4,89.3c-8.1,0-14.6,7.3-14.6,16.3v.4c0,1.2-.1,2.7,0,3.7.2,5.2,1.3,9.2,2,13.9,1.2,10.2,2.2,18.7,1.6,26.6-.6,2.9-2.8,5.6-4.7,7.5l-.4,6.2a185.4,185.4,0,0,0-26.4,4.1,187.4,187.4,0,0,0-95.6,54.6l-5.3-3.8c-2.6.4-5.2,1.2-8.7-.8-6.5-4.4-12.5-10.5-19.7-17.8-3.3-3.6-5.7-6.9-9.6-10.3l-3.2-2.6a17.6,17.6,0,0,0-10.2-3.8,13.9,13.9,0,0,0-11.7,5.2c-5,6.3-3.4,15.9,3.6,21.5l.2.2,3.1,2.4c4.1,3.1,7.9,4.7,12.1,7.1,8.7,5.4,16,9.9,21.7,15.3,2.3,2.4,2.7,6.6,3,8.4l4.7,4.2a189,189,0,0,0-29.9,131.9l-6.1,1.8c-1.6,2.1-3.9,5.4-6.3,6.4-7.5,2.3-16,3.2-26.2,4.3-4.8.4-9,.1-14,1.1l-4,.9h-.1c0,.1-.1.1-.2.1-8.6,2.1-14.2,10-12.4,17.8s10.2,12.6,18.9,10.7h.5l3.8-.9c5-1.3,8.6-3.3,13.1-5,9.7-3.5,17.7-6.4,25.5-7.5,3.3-.2,6.7,2,8.4,3l6.4-1.1A190.5,190.5,0,0,0,255,516.5l-2.6,6.4c.9,2.4,2,5.8,1.3,8.2-2.9,7.4-7.7,15.2-13.3,23.8-2.6,4-5.4,7.1-7.8,11.7-.6,1.1-1.3,2.8-1.9,4-3.7,8-1,17.3,6.2,20.7s16.3-.2,20.2-8.2h.1l1.8-3.7c2-4.7,2.7-8.8,4.2-13.4,3.9-9.7,6-19.9,11.3-26.3,1.5-1.7,3.8-2.4,6.3-3l3.3-6A189.5,189.5,0,0,0,394,538.5a187.1,187.1,0,0,0,25.1-7.6l3.1,5.6c2.5.8,5.3,1.3,7.5,4.6,4,6.8,6.7,14.8,10,24.6,1.5,4.5,2.2,8.6,4.3,13.4.4,1,1.2,2.6,1.8,3.7,3.9,8.1,12.9,11.8,20.2,8.3s10-12.8,6.2-20.8c-.5-1.2-1.3-2.8-1.9-3.9-2.4-4.6-5.1-7.7-7.8-11.7-5.6-8.6-10.2-15.8-13-23.2-1.2-3.8.2-6.2,1.1-8.6-.5-.7-1.7-4.3-2.4-5.9a190.7,190.7,0,0,0,84.3-106.1l6.3,1.1c2.2-1.5,4.2-3.3,8.1-3,7.8,1.1,15.9,4,25.5,7.5,4.5,1.7,8.2,3.7,13.2,5l3.7.8h.3c.1,0,.2,0,.2.1,8.7,1.8,17.1-2.9,18.9-10.7S605,396,596.3,394l-4.2-1c-5.1-1-9.2-.8-14-1.2-10.3-1-18.7-1.9-26.3-4.3-3-1.2-5.2-4.8-6.3-6.3l-5.9-1.7a188.1,188.1,0,0,0-3-68.3,191,191,0,0,0-27.4-63.4l5.1-4.6c.3-2.6.1-5.4,2.8-8.3,5.7-5.4,13-9.9,21.7-15.3,4.2-2.4,8-4,12.2-7.1l3.2-2.6c7-5.6,8.7-15.2,3.6-21.5s-14.8-6.9-21.8-1.3a27.8,27.8,0,0,0-3.2,2.6c-4,3.3-6.4,6.7-9.7,10.2-7.2,7.3-13.2,13.4-19.7,17.8-2.9,1.7-7,1.1-8.9,1l-5.6,4A191.3,191.3,0,0,0,367.5,164c-.1-2-.3-5.5-.3-6.5-1.9-1.9-4.2-3.4-4.8-7.3-.6-7.9.4-16.4,1.7-26.6.6-4.7,1.8-8.7,2-13.9,0-1.2-.1-2.9-.1-4.1,0-9-6.5-16.3-14.6-16.3ZM333.1,202.7l-4.3,76.8h-.4A12.9,12.9,0,0,1,315.6,292a12.4,12.4,0,0,1-7.6-2.5h-.2L244.9,245a151.5,151.5,0,0,1,72.6-39.6Q325.3,203.8,333.1,202.7Zm36.7,0A152.2,152.2,0,0,1,457.4,245l-62.5,44.3h-.2a12.8,12.8,0,0,1-17.7-2.4,12.4,12.4,0,0,1-2.8-7.4h-.1ZM222.1,273.6,279.6,325v.3a12.8,12.8,0,0,1,1.6,17.8,12.6,12.6,0,0,1-6.7,4.4v.2L200.8,369A150.7,150.7,0,0,1,222.1,273.6Zm258.2.1a153.7,153.7,0,0,1,22,95l-74-21.3v-.3a12.9,12.9,0,0,1-5.1-22.2h0l57.1-51.1ZM339.6,329h23.6l14.6,18.2-5.3,22.9-21.1,10.1L330.2,370,325,347.2Zm75.5,62.5,2.9.2h.2l76.1,12.9a150.9,150.9,0,0,1-61,76.6l-29.5-71.4v-.2a12.9,12.9,0,0,1,6.2-16.7,12.8,12.8,0,0,1,5-1.3Zm-127.9.3a12.9,12.9,0,0,1,12.3,10.1,11.9,11.9,0,0,1-.7,7.9l.2.3-29.2,70.7A151.5,151.5,0,0,1,209,404.7l75.5-12.8v.2a11.5,11.5,0,0,1,2.6-.3Zm63.7,31a12,12,0,0,1,6.1,1.3,13.4,13.4,0,0,1,5.8,5.5h.2l37.3,67.2a151.9,151.9,0,0,1-97.5-.1L340,429.6h0A13.3,13.3,0,0,1,350.9,422.8Z" fill="#fff" stroke="#fff" stroke-width="0.25"/></svg>