<svg xmlns="http://www.w3.org/2000/svg" xmlns:xlink="http://www.w3.org/1999/xlink" width="218.3" height="292" viewBox="0 0 218.3 292"><defs><linearGradient id="a" x1="-14900.08" y1="-4875.79" x2="-14577.54" y2="-5252.96" gradientTransform="matrix(-0.02, -0.12, -0.12, 0.02, -905.83, -1589.17)" gradientUnits="userSpaceOnUse"><stop offset="0" stop-color="#f69923"/><stop offset="0.31" stop-color="#f79a23"/><stop offset="0.84" stop-color="#e97826"/></linearGradient><linearGradient id="b" x1="-17287.18" y1="-4833.16" x2="-14985.98" y2="-4833.16" gradientTransform="matrix(-0.02, -0.12, -0.12, 0.02, -905.83, -1589.17)" gradientUnits="userSpaceOnUse"><stop offset="0.32" stop-color="#9e2064"/><stop offset="0.63" stop-color="#c92037"/><stop offset="0.75" stop-color="#cd2335"/><stop offset="1" stop-color="#e97826"/></linearGradient><linearGradient id="c" x1="-17009.4" y1="-5064.43" x2="-15638.1" y2="-5064.43" gradientTransform="matrix(-0.02, -0.12, -0.12, 0.02, -905.83, -1589.17)" gradientUnits="userSpaceOnUse"><stop offset="0" stop-color="#282662"/><stop offset="0.1" stop-color="#662e8d"/><stop offset="0.79" stop-color="#9f2064"/><stop offset="0.95" stop-color="#cd2032"/></linearGradient><linearGradient id="d" x1="-17157.94" y1="-4811.9" x2="-14856.73" y2="-4811.9" xlink:href="#b"/><linearGradient id="e" x1="-16990.1" y1="-4843.43" x2="-15780.75" y2="-4843.43" xlink:href="#c"/><linearGradient id="f" x1="-17157.94" y1="-5050.05" x2="-14856.73" y2="-5050.05" xlink:href="#b"/><linearGradient id="g" x1="-17300.68" y1="-5038.51" x2="-14999.48" y2="-5038.51" xlink:href="#b"/><linearGradient id="h" x1="-8271.6" y1="-7283.93" x2="-7949.06" y2="-7661.1" gradientTransform="matrix(0.07, -0.11, -0.11, -0.07, -25.39, -1432.66)" xlink:href="#a"/><linearGradient id="i" x1="-10658.7" y1="-7241.3" x2="-8357.5" y2="-7241.3" gradientTransform="matrix(0.07, -0.11, -0.11, -0.07, -25.39, -1432.66)" xlink:href="#b"/><linearGradient id="j" x1="-10380.92" y1="-7472.57" x2="-9009.62" y2="-7472.57" gradientTransform="matrix(0.07, -0.11, -0.11, -0.07, -25.39, -1432.66)" xlink:href="#c"/><linearGradient id="k" x1="-10529.46" y1="-7220.04" x2="-8228.25" y2="-7220.04" gradientTransform="matrix(0.07, -0.11, -0.11, -0.07, -25.39, -1432.66)" xlink:href="#b"/><linearGradient id="l" x1="-10361.62" y1="-7251.57" x2="-9152.28" y2="-7251.57" gradientTransform="matrix(0.07, -0.11, -0.11, -0.07, -25.39, -1432.66)" xlink:href="#c"/><linearGradient id="m" x1="-10529.46" y1="-7458.19" x2="-8228.25" y2="-7458.19" gradientTransform="matrix(0.07, -0.11, -0.11, -0.07, -25.39, -1432.66)" xlink:href="#b"/><linearGradient id="n" x1="-10672.21" y1="-7446.65" x2="-8371" y2="-7446.65" gradientTransform="matrix(0.07, -0.11, -0.11, -0.07, -25.39, -1432.66)" xlink:href="#b"/></defs><path d="M4.6,5.6C2.7,10.1,1.2,20,.5,33.3l14.9,7.2a187.2,187.2,0,0,1,1-26.5,6.7,6.7,0,0,0,.1-1c0,.3-.1.6-.1,1-.3,2.6-.9,11,0,26.1a289.5,289.5,0,0,0,22-20.8C31,4.1,21.8,1.5,21.8,1.5S8.6-3.8,4.6,5.6Z" fill="url(#a)"/><path d="M19.3,84.4c-.7-5-1.4-9.8-1.9-14.6s-1-9.9-1.4-14.7v-.8c-.4-4.8-.6-9.4-.7-13.9L.4,33.3c0,.9-.1,1.8-.1,2.8C.2,39.6,0,43.4,0,47.4s0,9.2.1,14.1.3,9.1.5,13.9.5,8.2.9,12.5v.4L21.4,98.4Z" fill="url(#b)"/><path d="M48.6,201.9c1.1,3.7,2.2,7.6,3.4,11.4v.2c.2.6.3,1.1.5,1.6.8,2.6,1.6,5,3.2,10.3,3.2-.7,7.2.8,11.4,2.7a16.4,16.4,0,0,0-10.8-5.9c12.1-8.1,20.1-18.6,19-31-.1-1.1-.3-2.3-.5-3.4-.2,4.7-2.1,8.2-8,12h0c5.5-9.7,7-16.3,6.4-24.8-.2-2-.4-4.1-.8-6.4C70.8,181.2,64,189.4,54,194.3l-6,5.5Z" fill="url(#c)"/><path d="M40.9,185c-1.3-4.8-2.5-9.5-3.8-14.4l-3.6-14-3.3-14.3c-1.2-4.9-2.2-9.7-3.3-14.6S25,118,24,113.2c-.3-1.8-.7-3.5-1-5.3s-1-6-1.6-9a1.1,1.1,0,0,0-.1-.5L1.6,88.3c0,.3.1.7.1,1,.4,4.5.7,9,1.3,13.6s1.1,9.3,1.8,14l1.8,11.8c.2.8.3,1.6.5,2.4.9,4.9,1.8,9.7,2.9,14.1s2.5,9.7,3.7,14.1c.9,2.9,1.7,5.7,2.6,8.3s1.6,4.5,2.3,6.6q2.8,7.8,6.3,15l20,10.2c-1.1-3.7-2.1-7.4-3.2-11.2C41.5,187.1,41.2,186.1,40.9,185Z" fill="url(#d)"/><path d="M25.2,189.9a146.1,146.1,0,0,0,9.2,17l.3.5c-5.5-2.2-15.3-1.2-15.2-1.2,10.1,3.5,18.9,7.8,24.5,14.3-2.2,2.5-6.3,4.3-11.6,5.9,7.3.7,11.3-.5,12.8-1.2-3.8,3.2-5.9,8.9-7.8,15.1,4.3-6.9,8.5-11.5,12.6-13.3,6,19.9,13.2,41.4,21.2,64.1a5.9,5.9,0,0,0,.9-5.7c-1.4-4-11-30.9-21.8-67.4l-.9-3.2-.3-.9-3.4-11.8c-.3-.9-.5-1.8-.8-2.7h0l-20-10.1Z" fill="url(#e)"/><path d="M23.7,98.8a14.2,14.2,0,0,0,.4,2c.3,1.9.7,3.9,1.1,6s.9,4.4,1.3,6.7.5,2.3.7,3.5c.7,3.6,1.5,7.2,2.3,10.9s2.1,9.4,3.3,14.3,2.2,9.5,3.5,14.4L40,171.1c1.2,4.4,2.4,9,3.7,13.6,0,.2.2.5.2.7,1.3,4.6,2.6,9.3,4,14.1a.4.4,0,0,0,.1.3l6-5.5-.4.2c7.1-6.8,13.2-20.3,14.6-32.5a78.4,78.4,0,0,0-.1-18.1,143.4,143.4,0,0,0-2.9-15.5c-1.2-4.8-2.7-9.9-4.5-15.2a30.3,30.3,0,0,1-4.6,6.6l-1,1.2L54,122.1h0c5.2-8.2,5.9-17,4.3-26.1a32.5,32.5,0,0,1-6,10.3L51,107.7l-.4.4h0a35.4,35.4,0,0,0,3.9-8.5,11.6,11.6,0,0,0,.4-1.8,12.6,12.6,0,0,0,.5-2.8,9.9,9.9,0,0,0,.2-1.7,30.9,30.9,0,0,0,0-4.3,6.6,6.6,0,0,0-.1-1.4l-.3-1.9c-.5-2.8-1-5.2-1.6-7.3s-.5-2-.8-2.9l-.3-1c-.3-1-.6-1.8-.9-2.6l-1.1-2.5h0a5.6,5.6,0,0,1-.4,1.2,36.5,36.5,0,0,1-6.8,9.7l5.6-5-5.6,5c0,.1-.1.1-.1.2l-.8.8a.3.3,0,0,0,.1-.2l-19,17.4A.4.4,0,0,1,23.7,98.8Z" fill="url(#f)"/><path d="M16.4,40.1c.2,4.2.6,8.9,1,14a2.5,2.5,0,0,1,.1.8c.5,4.6,1,9.4,1.7,14.7s1.3,9.4,2.1,14.7,1.5,9.2,2.4,14.2l19-17.4C46.6,74,47.5,69.5,47.4,64c0-1.5-.1-3.1-.2-4.7-.3-4.9-.9-10-1.7-15a136.5,136.5,0,0,0-2.8-13.4c-.7-2.6-1.5-4.9-2.2-6.8s-1.4-3.3-2.1-4.7C31.4,26.6,22.5,35.1,16.4,40.1Z" fill="url(#g)"/><path d="M199.1,9.3c-5.1,2.1-14.2,8.9-25.3,19l6.3,17.6A215.5,215.5,0,0,1,202,25.4l.8-.7-.8.7c-2.4,1.9-9.6,8.2-20.9,21a311.9,311.9,0,0,0,34.3.8c6.1-18.1.8-27.5.8-27.5S209.8,4.9,199.1,9.3Z" fill="url(#h)"/><path d="M148.3,84.4c3.4-4.5,6.7-9,10.1-13.3s7-8.7,10.5-12.9l.7-.7c3.5-4.1,6.9-7.9,10.4-11.6l-6.3-17.6-2.3,2.1c-2.9,2.8-6,5.7-9.2,8.9L151.1,50.7c-3.5,3.7-7.1,7.6-10.7,11.7L131.2,73l-.3.4,8,23.9Z" fill="url(#i)"/><path d="M78.5,202.3c-2,3.9-4.2,7.8-6.3,11.9,0,.1-.1.1-.1.2a13,13,0,0,0-.8,1.7c-1.5,2.7-2.7,5.2-5.6,10.8,3.1,2,5.2,6.4,7,11.3a18.4,18.4,0,0,0-4.1-13.4c16.3,3.1,31,1.1,40.1-9.8l2.3-3.2c-4,3.7-8.3,4.9-16,3.3h0c12.1-3.4,18.5-7.5,24.8-14.8l4.5-5.8c-11.5,8.7-23.5,9.9-35.3,5.9l-9.3-.3Z" fill="url(#j)"/><path d="M85.8,182.5,94.1,168c2.7-4.7,5.5-9.4,8.3-14.1s5.7-9.5,8.6-14.2,6-9.6,9.1-14.4l9.1-14,3.4-5,5.9-8.5.3-.5-7.9-23.8a2.7,2.7,0,0,1-.7.8c-3.2,4-6.5,7.9-9.7,12S114,94.7,110.8,99l-7.9,11a18.8,18.8,0,0,1-1.6,2.3c-3.1,4.7-6.1,9.3-8.8,13.7s-5.8,9.8-8.2,14.3L79.8,149c-1.2,2.4-2.3,4.8-3.4,7.2-2.6,5.7-4.8,11.3-6.9,17l8,24.1c2.1-3.8,4.3-7.6,6.4-11.5Z" fill="url(#k)"/><path d="M69.2,174a193.6,193.6,0,0,0-6.1,21c0,.2-.1.5-.1.7-2.7-6.2-11.4-13.1-11.4-13,5.4,10.8,9.1,21.3,8.4,31-3.7.2-8.5-1.6-13.9-4.6,5.2,6.4,9.4,8.6,11.1,9.2-5.5-.4-11.8,2.5-18.2,6,8.9-2.2,16-2.5,20.7-.7-11,20.8-22.3,43.9-33.8,68.4a6.7,6.7,0,0,0,5.2-3.8c2.1-4.4,15.8-33.6,36-71.6l1.8-3.3.5-.9c2.1-4,4.3-8.1,6.6-12.2l1.6-2.9h0l-8-24A1.6,1.6,0,0,0,69.2,174Z" fill="url(#l)"/><path d="M140.4,99.5a21.4,21.4,0,0,1-1.3,1.9c-1.2,1.9-2.5,3.8-3.8,5.7l-4.3,6.5a39.6,39.6,0,0,0-2.2,3.4c-2.3,3.4-4.5,6.9-6.9,10.6l-8.7,14L104.6,156l-8.5,14.7c-2.6,4.5-5.2,9.1-7.8,13.9a1.6,1.6,0,0,0-.4.7c-2.6,4.7-5.3,9.5-8,14.5l-.2.3,9.3.3h-.6c11.2.2,26.8-5.8,37.7-14.5A91.7,91.7,0,0,0,140.3,171a139,139,0,0,0,10-14.7c2.8-4.8,5.7-10.1,8.5-15.8a35.1,35.1,0,0,1-9,1.7h-3.5c10.7-2.4,18.2-9,24.2-17.6a37,37,0,0,1-13,3.6h-2.8a39.9,39.9,0,0,0,9.9-3.7l1.8-1.1,2.5-1.8,1.6-1.3a22.6,22.6,0,0,0,3.4-3.5l1-1.1c.4-.7.9-1.2,1.2-1.8a75.6,75.6,0,0,0,4.6-7.2l1.7-2.9a5.4,5.4,0,0,1,.5-1.1c.5-1,1-1.9,1.3-2.7s.9-2.2,1.2-2.9h0l-1.3.6a41.9,41.9,0,0,1-13.2,2.4l8.5.4-8.5-.4h-1.3l-29.1-1.1C140.5,99.4,140.5,99.5,140.4,99.5Z" fill="url(#m)"/><path d="M181.1,46.4C178,50,174.6,54,170.9,58.6a1.3,1.3,0,0,0-.6.7c-3.3,4-6.7,8.3-10.3,13.2s-6.5,8.5-10,13.4l-9.4,13.4,29.1,1.1c8.9-2.7,13.1-5.6,17.5-10.1l3.5-3.9c3.6-4.2,7.2-8.8,10.5-13.4a128.9,128.9,0,0,0,8.4-13.1c1.5-2.6,2.7-5,3.7-7.2s1.5-3.7,2.1-5.5A311.9,311.9,0,0,1,181.1,46.4Z" fill="url(#n)"/></svg>