<svg xmlns="http://www.w3.org/2000/svg" width="529.8" height="115.6" viewBox="0 0 529.8 115.6"><path d="M529.8,73.9c-1.5,54.2-77.8,53.9-78.7-.8C452.7,19.3,528.9,19.5,529.8,73.9Zm-39.4,26.4c33.2.3,33.4-53.2.1-53.6S457,100.5,490.4,100.3Z"/><path d="M424.1,70.2c1.2,11.7-5.4,32.1,12.9,30.7,6.4.3,9.8,5.6,6.9,10.8C430.7,123,410,108,410.8,91.8c-.3-12.7-.1-25.3-.1-38-.1-6.3-.1-6.4-6.4-6.1-11.5.8-9.9-16.7,1.1-13.9,12.9,2.4-2.7-30.4,11.5-30.6s.9,31,10.5,30.6c18-3.7,20.3,12.6,7.6,13.9-10.9-.2-10.9-.2-10.9,10.5v12Z" fill="#070707"/><path d="M384.5,18.9c0,9.3-14.2,9.1-13.7-.6S384.8,9.9,384.5,18.9Z" fill="#070707"/><path d="M384.6,73.6v32.9c0,5.4-2.5,8.4-7,8.5s-6.8-3-6.8-8.2c-.1-22.3-.2-44.6-.1-66.9-.4-11.4,14.4-10.7,13.8.2s0,22.3,0,33.5Z" fill="#070707"/><path d="M304.2,95c0,4.3,0,8.6-.1,13-1.2,12.1-16.1,7.9-14-3.6.3-32.8-.6-65.7.2-98.4.7-8.7,14.3-7.7,13.7,1.3q-.2,21.8,0,43.5c.1,3.2-1.4,8.3.7,9.3s5.8-2.9,8.6-4.7l32.5-22.3c7.2-6.5,16.2,5.8,8.5,10.9-38.6,29-32.3,9.8.7,58.4,7.5,11.5-6.8,18.5-14.3,4.5-7.9-10.5-15.9-20.9-23.8-31.5-1.8-2.5-3.2-2.8-6-1.2-9.1,4-6.7,12.6-6.9,20.8Z" fill="#7ea544"/><path d="M209.9,70c0-29.6,41.2-51.5,65-28.1,9.3,7-1.6,19-9.8,10.3C249,38.1,224,51.6,223.8,72,220.9,94.4,249,110.2,266,94.8c9.6-8.2,17.4,5.5,8.7,11.2C247.4,129.4,207.3,106.1,209.9,70Z" fill="#7ea544"/><path d="M201.7,74.4c-1.5,54.3-77.8,53.9-78.7-.8C124.7,19.9,200.8,20.1,201.7,74.4Zm-39.4,26.5c33.3.3,33.4-53.2.1-53.7S128.9,101.1,162.3,100.9Z" fill="#7ea544"/><path d="M.1,74.9v-31c-1-7,6.5-14.2,12.3-6.9S32,22.4,53.6,43.4c2.4,2.3,3.5,2.1,5.9-.1,18.5-20.2,53.6-5.2,53.3,21.8.6,14.2.2,28.3.2,42.5.5,10.2-13.5,10.4-13.4.3-.2-13.5-.1-27-.2-40.5-.1-10.5-5.9-17.6-15.4-19-39.1-4.2-7,68.2-27.8,67-3.6-.5-6.2-2.6-6.2-6.6-.4-14.8.8-29.7-.7-44.4C47.2,42.2,14.4,43.9,14,65.9c-.5,14.3,0,28.7-.2,43C14,116.7,2,118.1.7,110.3-.8,98.6.6,86.7.2,74.9Z" fill="#7ea544"/></svg>