<svg xmlns="http://www.w3.org/2000/svg" width="256" height="270.8" viewBox="0 0 256 270.8"><path d="M252.9,108.3h-85a7.8,7.8,0,0,1-7.8-7.7V11.9A11.9,11.9,0,0,0,148.2,0H117.9A11.9,11.9,0,0,0,106,11.9V100a8.3,8.3,0,0,1-8.3,8.3l-27.9.2a8.2,8.2,0,0,1-8.3-8.3V11.9A11.9,11.9,0,0,0,49.7,0H19.4A11.9,11.9,0,0,0,7.5,11.9V260.2a10.6,10.6,0,0,0,10.6,10.6H252.9a10.6,10.6,0,0,0,10.6-10.6V118.9A10.5,10.5,0,0,0,252.9,108.3ZM213,201.5a13.8,13.8,0,0,1-13.8,13.9h-24a13.9,13.9,0,0,1-13.9-13.9v-24a13.8,13.8,0,0,1,13.9-13.8h24A13.8,13.8,0,0,1,213,177.5v24Z" transform="translate(-7.5)" fill="#f60"/></svg>