<svg xmlns="http://www.w3.org/2000/svg" width="1710.1" height="420" viewBox="0 0 1710.1 420"><path d="M951.2,374.5c-4.2,4.2-9,7.8-15,5.2s-8.1-8.9-8.1-15.4c-.1-42.8,0-85.7-.1-128.5,0-12.3.6-24.7-1.1-36.9-3.4-25.6-13.8-47.1-38.3-58.2-49.7-22.5-100.4-24.4-151-2.9-19.9,8.4-35.8,21.9-42.2,43.8-8.3,28.5,3.2,51.2,29,57.1s49.8-10.7,49-35.9c-.3-10.6-5.3-19-12.1-26.7-8.3-9.5-6.9-19,3.9-25.9s22.5-7.5,34.6-6.8c26.5,1.5,39.8,11.9,43.7,35.3,3.4,20.3.9,40.8,1.6,61.3-28.2,8.4-55.8,16.9-82.5,28.2-22.2,9.5-44.8,18.6-61.7,36.8-20.8,22.4-24.8,49.1-13.9,76.6s33.6,36,60,37.4c31.1,1.5,58.4-9.9,82.9-28.4,5.1-3.8,9.8-8.2,15.1-12.6.4,1.7.8,3,1,4.2,3.9,16.9,12.4,29.7,30,34.8,29.5,8.5,70-6.5,87.2-32.6l-9-12.5C953,373,952,373.7,951.2,374.5ZM844.1,350.3c-7.6,8.2-14.7,16.4-24.8,21.1-24.3,11.4-46.4-1.5-48.4-28.3q-3.6-48,45.8-71.8a108.2,108.2,0,0,1,27.4-9.5v88.5Z" fill="#00c794"/><path d="M368.9,122.9c-54.9-.1-92.4,20.8-119.2,61-22.9,34.4-27.8,72.7-22.9,112.9,7.4,60.6,55.4,119,125.1,122.8,42,2.3,78.7-9.1,107.4-41,36-39.9,46.1-87.1,37.5-139C487.6,184,440.9,121.5,368.9,122.9Zm37,222.6c-1.5,10.8-3.4,21.4-7.7,31.4-6.2,14.2-16.9,22-32.3,23.1s-27.3-4.7-35.6-17.7c-9.5-14.9-11.7-32-13.3-49.1s-2.3-34.5-2.3-51.9c.3-32.1-.4-64.3,6.1-96a77.8,77.8,0,0,1,8-21.9c7.8-13.9,19.4-21.2,35.5-20.6s27.3,8.8,33.4,23.5c8,18.8,9.7,39,10.9,59.1C410.9,265.5,411.1,305.6,405.9,345.5Z" fill="#00c794"/><path d="M1436.1,361.7c-21.7,14.6-44.7,17.9-68.9,6.4-11.3-5.3-19.4-14.5-25.4-25.3-13.9-25-18.2-52.4-20.2-81h155.3a305.8,305.8,0,0,0-4-36.6c-5.3-32.3-17.9-60.6-45.3-80.4-55.6-40.3-136.1-21.8-171.7,39.3-18.1,31-21.9,64.9-20.4,99.8,1.1,26,5.6,51.3,18.5,74.4,23.7,42.5,78.3,67.7,126.9,59.6,46.1-7.6,75-37.1,98.7-74.7l-14.2-8.7C1456.1,344.2,1447.2,354.2,1436.1,361.7ZM1323.3,196.6c1.6-11.5,3.8-23,8.6-33.7,6.3-14.1,17.8-21,32.9-20.1s24.5,8.2,29.2,23.5c5.9,18.6,6.5,37.9,7.3,57.2.2,4.9,0,9.9,0,15.3h-81.1A327.5,327.5,0,0,1,1323.3,196.6Z" fill="#00c794"/><path d="M631.9,355.5V0H516.6V14.3l6.3,1.9c17.3,4.8,22.7,11.3,22.8,29q.1,159.3,0,318.5c-.1,18.2-11.5,27.3-28.9,32.7v14H661.1V396.1C634,387.1,631.9,384.1,631.9,355.5Z" fill="#00c794"/><path d="M1203.8,350.7c-18,20.4-40.5,29.9-67.6,26.9-29.6-3.2-46.3-22.7-58.3-47.4-15.1-30.8-18.6-63.6-17.3-97.3.8-22.1,4.5-43.6,13.4-64.1,5.1-11.9,13.1-21.3,26.1-25,16.8-4.8,38-.8,36.8,26.8-.3,7-.6,14-.5,21,.4,21.5,12.2,34.8,32.3,37s38.1-10.2,42.8-29.5-5.2-41.7-25.1-56.3c-42.2-30.9-127.7-28-172.4,23.4-34.9,40.2-45.7,86.8-38,138.2,9.2,61.6,62,127.7,152,113.7,40.5-6.4,69.3-30.9,93-63l-11.6-10.5C1207.4,346.8,1205.5,348.7,1203.8,350.7Z" fill="#00c794"/><path d="M145.5,244c-19.4-10.2-40-18.2-58.8-29.6C76.2,208,67.3,200,63.2,188.1c-7.2-20.6,11-43.2,35.4-43.9,32.3-.8,52.6,17.2,67.2,43.6,4.3,7.7,7,16.1,9.7,24.2h15.6V124.5H178c-7.2,12.1-10.8,13.7-24.7,10.3-17.6-4.4-34.8-10.6-53.1-11.2-30.5-1.1-58.1,5.6-79.2,29.8-27.3,31.3-29.1,84.8,4,115.5,17.6,16.2,38.8,26.1,59.8,36.5,14.8,7.3,30.2,13.3,43.8,22.8s19.7,26.3,15.1,43.3c-3.9,14.6-16.1,24.1-33.2,25.8-38.9,4-72.6-17-86.5-54.1-3-8.1-5.1-16.4-7.6-24.5H0V419.1H14.5l2.3-4c7.6-14,11.2-15.3,26.4-10.1,20.4,6.9,40.8,14.2,62.9,14.3,32.6.1,60.9-8.7,80.8-36.8,24.2-34.1,24.9-77.4.9-107.3C176.5,261,161.1,252.3,145.5,244Z" fill="#00c794"/><path d="M1609,217c-55.7-.4-101.7,45.1-101.9,100.9S1552.4,420,1608.2,420a101.5,101.5,0,0,0,.8-203Z" fill="#00c794"/></svg>