<svg xmlns="http://www.w3.org/2000/svg" width="153.4" height="137.7" viewBox="0 0 153.4 137.7"><path d="M153.4,62.6,123.2,10.3C120.6,5.8,114.1,2,108.9,2H48.5c-5.2,0-11.7,3.7-14.3,8.3L4,62.6c-2.6,4.5-2.6,12,0,16.5l30.2,52.3c2.6,4.5,9.1,8.3,14.3,8.3h60.4c5.2,0,11.7-3.7,14.3-8.3l30.2-52.3C156.1,74.5,156.1,67.1,153.4,62.6Z" transform="translate(-2.1 -2)" fill="#6db33f"/><path d="M138.6,10c8.3,24.8,18.4,63.5.4,87.4-11.1,14.8-30.1,17.2-48.7,17.2-8.8,0-17.5-.5-25.2-.5H59.4a86,86,0,0,0-8.6.9l3.7-1.4c17-5.9,25-7.1,35.4-12.4,19.4-9.9,38.7-31.6,42.7-54.1C125.2,68.8,102.7,87.5,82.3,95c-14,5.2-39.3,10.2-39.3,10.2h0l-1-.5C24.5,96.4,24,59,55.3,47,69,41.7,82.2,44.6,97,41.1S131.1,25.5,138.6,10m.5-7.9-3.2,6.6c-7.5,15.6-25.8,26.2-39.6,29.5C90.1,39.7,84,40,78.2,40.3c-7.7.4-15.7.8-23.9,3.9C35,51.6,27.6,67.8,27.1,80.5s4.7,22.6,13.2,26.9a5.7,5.7,0,0,0,2.5.9h1.3l.2-.2c5.8-1.2,26.5-5.6,38.9-10.1a98.1,98.1,0,0,0,27.1-15.8A80.9,80.9,0,0,1,88.5,98.8c-6.3,3.2-11.7,4.9-19.2,7.2-4.4,1.3-9.5,2.9-15.7,5-2.2.7-3.8,1.5-3.9,1.5L47.5,117l3.9,1.2a76.2,76.2,0,0,1,8.3-.9h5.5l11.7.3c4.4.1,8.9.3,13.5.3,18.5,0,39-2.2,51.1-18.4,14.1-18.8,14.2-48.3.1-90.2l-2.5-7.1Z" transform="translate(-2.1 -2)" fill="#6db33f"/><path d="M139,97.4C121.3,121,83.5,113,59.3,114.2a86,86,0,0,0-8.6.9l3.7-1.4c17-5.9,25-7.1,35.4-12.4,19.4-9.9,38.7-31.6,42.7-54.1C125.1,68.8,102.6,87.5,82.2,95c-14,5.2-39.3,10.2-39.3,10.2l-1-.5C24.5,96.4,24,59,55.3,47,69,41.7,82.2,44.6,97,41.1S131.1,25.5,138.6,10C146.9,34.8,156.9,73.5,139,97.4Z" transform="translate(-2.1 -2)" fill="#fff"/><circle cx="34.7" cy="113.2" r="6.1" fill="#fff"/></svg>