<svg xmlns="http://www.w3.org/2000/svg" width="568.1" height="150.2" viewBox="0 0 568.1 150.2"><path d="M85.1,109.5V68.3a2.7,2.7,0,0,0-2.6-2.7H41.4V23h83.5a2.7,2.7,0,0,1,2.6,2.7v83.8Z" transform="translate(-0.9)" fill="#8e75ff" fill-rule="evenodd"/><path d="M41.4,23V65.6H2.2A1.3,1.3,0,0,1,.9,64.3a1.3,1.3,0,0,1,.4-1Z" transform="translate(-0.9)" fill="#8e75ff" fill-rule="evenodd" opacity="0.4" style="isolation:isolate"/><path d="M85.1,148.9V109.5h42.4L87.4,149.8a1.2,1.2,0,0,1-1.9,0A1.3,1.3,0,0,1,85.1,148.9Z" transform="translate(-0.9)" fill="#8e75ff" fill-rule="evenodd" opacity="0.4" style="isolation:isolate"/><path d="M41.4,65.6H83.8a1.3,1.3,0,0,1,1.3,1.3v42.6h-41a2.7,2.7,0,0,1-2.7-2.6Z" transform="translate(-0.9)" fill="#8e75ff" fill-rule="evenodd" opacity="0.4" style="isolation:isolate"/><path d="M290.8,52.4H274.1V84.2c0,2.6.6,4.6,2,5.8a8.7,8.7,0,0,0,5.7,2,59.9,59.9,0,0,0,8.5,0h.5a.5.5,0,0,1,.5.4h0v17a.5.5,0,0,1-.4.5h-.3c-13.2,1.4-22.4.1-27.9-3.9s-8.3-11.3-8.3-21.8V52.4H241.6a.4.4,0,0,1-.4-.4V33.9a.4.4,0,0,1,.4-.4h12.8V20.8a.9.9,0,0,1,.6-.8l18.4-8.1a.4.4,0,0,1,.6.2c.1,0,.1.1.1.2V33.5h16.7a.5.5,0,0,1,.5.4V52A.5.5,0,0,1,290.8,52.4Zm36.1-5.8a20.8,20.8,0,0,1,9.1-11A26.7,26.7,0,0,1,348.8,32h.8a.5.5,0,0,1,.5.5h0V53.1a.7.7,0,0,1-.7.7h-.1A23.2,23.2,0,0,0,334,57.6c-4.7,3.2-7.1,8.4-7.1,15.7v36.1a.4.4,0,0,1-.4.4H307.7a.4.4,0,0,1-.4-.4V33.9a.4.4,0,0,1,.4-.4h18.8a.4.4,0,0,1,.4.4Zm93-13.1h18.7a.5.5,0,0,1,.5.4v75.5a.5.5,0,0,1-.5.4H419.9a.5.5,0,0,1-.5-.4v-8.6c-5.9,7.5-14.1,11.2-24.8,11.2s-18.9-3.9-26.1-11.7S357.6,83,357.6,71.7s3.6-20.9,10.9-28.7,15.9-11.7,26.1-11.7,18.9,3.7,24.8,11.2V33.9A.5.5,0,0,1,419.9,33.5ZM383.2,87.2a20,20,0,0,0,15,6,20.7,20.7,0,0,0,15.2-6,21.2,21.2,0,0,0,6-15.5c0-6.4-2-11.5-6-15.6a20.7,20.7,0,0,0-15.2-6,20,20,0,0,0-15,6c-4,4.1-6,9.2-6,15.6S379.2,83.2,383.2,87.2Zm115-55.9c10.2,0,19,3.9,26.3,11.7s10.9,17.3,10.9,28.7-3.7,20.8-10.9,28.6S508.4,112,498.2,112s-18.9-3.7-24.7-11.2v39.1a.5.5,0,0,1-.5.5H454.3a.5.5,0,0,1-.5-.5V33.9a.5.5,0,0,1,.5-.4H473a.5.5,0,0,1,.5.4v8.6C479.3,35,487.5,31.3,498.2,31.3ZM479.4,87.2a20.4,20.4,0,0,0,15.1,6,20.7,20.7,0,0,0,15.2-6,21.2,21.2,0,0,0,6-15.5c0-6.4-2-11.5-6-15.6a20.7,20.7,0,0,0-15.2-6,20.4,20.4,0,0,0-15.1,6c-3.9,4.1-5.9,9.2-5.9,15.6S475.5,83.2,479.4,87.2Zm77.4-62.9a11.4,11.4,0,0,1-8.4-3.6,11.6,11.6,0,0,1-3.6-8.5,11.7,11.7,0,0,1,3.6-8.5A11.1,11.1,0,0,1,556.8,0a11.4,11.4,0,0,1,8.6,3.7,11.7,11.7,0,0,1,3.6,8.5,11.6,11.6,0,0,1-3.6,8.5A11.6,11.6,0,0,1,556.8,24.3Zm-9.7,85.1V33.9a.4.4,0,0,1,.4-.4h18.8a.4.4,0,0,1,.4.4v75.5a.4.4,0,0,1-.4.4H547.5A.4.4,0,0,1,547.1,109.4ZM195,55.2c0,2,1.3,3.6,4,4.9a54.1,54.1,0,0,0,9.9,3.4,101.5,101.5,0,0,1,11.5,3.6,22.6,22.6,0,0,1,9.9,7.5c2.7,3.4,4,7.7,4,12.9,0,7.9-2.9,13.9-8.8,18.1s-13.1,6.4-21.8,6.4c-15.3,0-25.9-5.8-31.6-17.4l-.2-.4a.5.5,0,0,1,.2-.6h0l16.5-7.3a.9.9,0,0,1,1.2.4h0c2.6,4.9,7.2,7.4,13.9,7.4s10.5-2.2,10.5-6.6c0-2-1.4-3.7-4-4.9a62.2,62.2,0,0,0-9.9-3.5,111.9,111.9,0,0,1-11.6-3.8,23.8,23.8,0,0,1-9.8-7.2c-2.7-3.3-4-7.5-4-12.5,0-7.5,2.7-13.5,8.3-17.8s12.4-6.5,20.6-6.5a34.2,34.2,0,0,1,16.9,4.2,30.2,30.2,0,0,1,11.2,10.4l.6.9a.6.6,0,0,1-.2.7h0l-16.6,7.3a.5.5,0,0,1-.8-.2q-3.7-5.7-11.1-5.7a10.6,10.6,0,0,0-6.3,1.7A5.1,5.1,0,0,0,195,55.2Z" transform="translate(-0.9)" fill="#fff"/></svg>