<svg xmlns="http://www.w3.org/2000/svg" xmlns:xlink="http://www.w3.org/1999/xlink" width="224.2" height="207.3" viewBox="0 0 224.2 207.3"><defs><linearGradient id="a" x1="38.3" y1="915.7" x2="262.5" y2="915.7" gradientTransform="translate(-37.8 -809.6)" gradientUnits="userSpaceOnUse"><stop offset="0" stop-color="#85328b"/><stop offset="1" stop-color="#3bb44a"/></linearGradient><radialGradient id="b" cx="106.18" cy="876.45" r="70" gradientTransform="translate(-6.8 -852.7) scale(1.12)" gradientUnits="userSpaceOnUse"><stop offset="0" stop-color="#84ab8e"/><stop offset="1" stop-color="#3d3356"/></radialGradient><linearGradient id="c" x1="170.9" y1="1009.2" x2="246.2" y2="1009.2" gradientTransform="translate(-21.5 -822.7)" gradientUnits="userSpaceOnUse"><stop offset="0" stop-color="#957448"/><stop offset="1" stop-color="#3d3356"/></linearGradient><linearGradient id="d" x1="190.17" y1="992.6" x2="245.37" y2="992.6" xlink:href="#c"/><linearGradient id="e" x1="22.6" y1="992.8" x2="78.1" y2="992.8" xlink:href="#c"/><linearGradient id="f" x1="22" y1="1009.3" x2="97.1" y2="1009.3" xlink:href="#c"/><linearGradient id="g" x1="134.36" y1="993.05" x2="190.16" y2="993.05" gradientTransform="translate(-21.5 -822.7)" xlink:href="#a"/><linearGradient id="h" x1="78.1" y1="993.05" x2="134.37" y2="993.05" gradientTransform="translate(-21.5 -822.7)" xlink:href="#a"/><linearGradient id="i" x1="59.6" y1="960.4" x2="134.3" y2="960.4" gradientTransform="translate(-21.5 -822.7)" xlink:href="#a"/><linearGradient id="j" x1="134.3" y1="960.45" x2="208.5" y2="960.45" gradientTransform="translate(-21.5 -822.7)" xlink:href="#a"/><linearGradient id="k" x1="78.4" y1="928" x2="134.3" y2="928" gradientTransform="translate(-21.5 -822.7)" xlink:href="#a"/><linearGradient id="l" x1="134.36" y1="928" x2="189.8" y2="928" gradientTransform="translate(-21.5 -822.7)" xlink:href="#a"/><linearGradient id="m" x1="97.15" y1="863.75" x2="134.35" y2="863.75" gradientTransform="translate(-21.5 -822.7)" xlink:href="#a"/><linearGradient id="n" x1="134.36" y1="864.05" x2="170.96" y2="864.05" gradientTransform="translate(-21.5 -822.7)" xlink:href="#a"/></defs><path d="M223.8,201.7,187,138.1l-18.7-32.5L149.4,73,112.8,9.7l-.3-.6L75.6,73,56.9,105.3,38.1,138.1l-37,64-.6,1H224.7Z" transform="translate(-0.5 -9.1)" fill="url(#a)"/><circle cx="112.1" cy="128.9" r="78.4" fill="url(#b)"/><path d="M149.4,203.1h75.3l-.9-1.4-55.2-31.8Z" transform="translate(-0.5 -9.1)" fill="url(#c)"/><path d="M168.6,169.9l55.2,31.8L187,138.1Z" transform="translate(-0.5 -9.1)" fill="url(#d)"/><path d="M38.1,138.1l-37,64,55.5-32Z" transform="translate(-0.5 -9.1)" fill="url(#e)"/><path d="M1.1,202.1l-.6,1H75.6l-19-33Z" transform="translate(-0.5 -9.1)" fill="url(#f)"/><path d="M112.8,137.6v65.5h36.6l19.2-33.2Z" transform="translate(-0.5 -9.1)" fill="url(#g)"/><path d="M112.8,137.6h0L56.6,170.1l19,33h37.2Z" transform="translate(-0.5 -9.1)" fill="url(#h)"/><path d="M112.8,137.6,56.9,105.3,38.1,138.1l18.5,32Z" transform="translate(-0.5 -9.1)" fill="url(#i)"/><path d="M112.8,137.6h0l55.8,32.3L187,138.1l-18.7-32.5Z" transform="translate(-0.5 -9.1)" fill="url(#j)"/><path d="M112.8,137.6h0V73H75.6L56.9,105.3Z" transform="translate(-0.5 -9.1)" fill="url(#k)"/><path d="M112.8,137.6l55.5-32L149.4,73H112.8Z" transform="translate(-0.5 -9.1)" fill="url(#l)"/><path d="M112.8,9.7l-.3-.6L75.6,73h37.2Z" transform="translate(-0.5 -9.1)" fill="url(#m)"/><path d="M149.4,73,112.8,9.7V73Z" transform="translate(-0.5 -9.1)" fill="url(#n)"/></svg>